<svg xmlns="http://www.w3.org/2000/svg" style="height: 0; width: 0; position: absolute; visibility: hidden;">

    <symbol id="fill-none" viewBox="0 0 18 18">
        <path
            d="M16.5,1H1.5a.5.5,0,0,0-.5.5v15a.5.5,0,0,0,.5.5h15a.5.5,0,0,0,.5-.5V1.5A.5.5,0,0,0,16.5,1ZM15.293,2,2,15.293V2ZM2.707,16,16,2.707V16Z" />
    </symbol>

    <symbol id="fill-solid" viewBox="0 0 18 18">
        <rect x="1" y="1" width="16" height="16" rx="0.5" />
    </symbol>

    <symbol id="fill-linear-gradient" viewBox="0 0 18 18">
        <rect x="2" y="14" width="14" height="2" fill-opacity="0" />
        <rect x="2" y="12" width="14" height="2" opacity="0.124" style="isolation: isolate" />
        <rect x="2" y="10" width="14" height="2" opacity="0.242" style="isolation: isolate" />
        <rect x="2" y="8" width="14" height="2" opacity="0.319" style="isolation: isolate" />
        <rect x="2" y="6" width="14" height="2" opacity="0.476" style="isolation: isolate" />
        <rect x="2" y="4" width="14" height="2" opacity="0.597" style="isolation: isolate" />
        <rect x="2" y="2" width="14" height="2" opacity="0.725" style="isolation: isolate" />
        <path
            d="M16.5,1H1.5a.5.5,0,0,0-.5.5v15a.5.5,0,0,0,.5.5h15a.5.5,0,0,0,.5-.5V1.5A.5.5,0,0,0,16.5,1ZM16,16H2V2H16Z" />
    </symbol>

    <symbol id="fill-radial-gradient" viewBox="0 0 18 18">
        <path
            d="M16.5,1H1.5a.5.5,0,0,0-.5.5v15a.5.5,0,0,0,.5.5h15a.5.5,0,0,0,.5-.5V1.5A.5.5,0,0,0,16.5,1ZM16,16H2V2H16Z" />
        <rect x="1.51" y="1.51" width="14.98" height="14.98" fill-opacity="0" />
        <path d="M9,2.5H9A6.5,6.5,0,0,1,15.5,9h0A6.5,6.5,0,0,1,9,15.5H9A6.5,6.5,0,0,1,2.5,9h0A6.5,6.5,0,0,1,9,2.5Z"
            opacity="0.117" style="isolation: isolate" />
        <path
            d="M9,3.583H9A5.417,5.417,0,0,1,14.416,9h0A5.416,5.416,0,0,1,9,14.416H9A5.416,5.416,0,0,1,3.583,9h0A5.416,5.416,0,0,1,9,3.583Z"
            opacity="0.242" style="isolation: isolate" />
        <rect x="4.667" y="4.667" width="8.667" height="8.667" rx="4.333" opacity="0.321" style="isolation: isolate" />
        <path
            d="M9,5.75H9A3.25,3.25,0,0,1,12.25,9h0A3.25,3.25,0,0,1,9,12.25H9A3.25,3.25,0,0,1,5.75,9h0A3.25,3.25,0,0,1,9,5.75Z"
            opacity="0.477" style="isolation: isolate" />
        <path
            d="M9,6.833H9A2.167,2.167,0,0,1,11.166,9h0A2.167,2.167,0,0,1,9,11.166H9A2.166,2.166,0,0,1,6.833,9h0A2.167,2.167,0,0,1,9,6.833Z"
            opacity="0.6" style="isolation: isolate" />
        <rect x="7.917" y="7.917" width="2.167" height="2.167" rx="1.083" />
    </symbol>

    <symbol id="fill-radial-focal-gradient" viewBox="0 0 18 18">
        <path
            d="M16.5,1H1.5a.5.5,0,0,0-.5.5v15a.5.5,0,0,0,.5.5h15a.5.5,0,0,0,.5-.5V1.5A.5.5,0,0,0,16.5,1ZM16,16H2V2H16Z" />
        <path
            d="M17,3.74V14.26a10.03,10.03,0,0,1-1.43,1.81,9.373,9.373,0,0,1-1.08.93H2.75a2.452,2.452,0,0,1-.27-.02,10.206,10.206,0,0,1-1.05-.91c-.13-.13-.25-.26-.38-.4v-.01a1.718,1.718,0,0,1-.04-.32A.3.3,0,0,1,1,15.25V2.75a.3.3,0,0,1,.01-.09c.01-.11.02-.21.04-.32V2.33c.13-.14.25-.27.38-.4a10.206,10.206,0,0,1,1.05-.91A2.452,2.452,0,0,1,2.75,1H14.49A9.794,9.794,0,0,1,17,3.74Z"
            opacity="0.04" style="isolation: isolate" />
        <path
            d="M17,4.89v8.22a8.137,8.137,0,0,1-1,1.53A8.139,8.139,0,0,1,14.64,16a8.187,8.187,0,0,1-1.53,1H4.89a8.252,8.252,0,0,1-1.53-1A8.215,8.215,0,0,1,2,14.64a8.237,8.237,0,0,1-1-1.53V4.89A8.237,8.237,0,0,1,2,3.36,8.215,8.215,0,0,1,3.36,2,8.252,8.252,0,0,1,4.89,1h8.22a8.187,8.187,0,0,1,1.53,1A7.92,7.92,0,0,1,16,3.36,8.137,8.137,0,0,1,17,4.89Z"
            opacity="0.06" style="isolation: isolate" />
        <path
            d="M17,6.22v5.56a7.839,7.839,0,0,1-1,1.88,7.223,7.223,0,0,1-.84,1A7.671,7.671,0,0,1,13.36,16a7.952,7.952,0,0,1-7.72,0,7.692,7.692,0,0,1-1.8-1.34A8.093,8.093,0,0,1,2,11.78,7.986,7.986,0,0,1,2,6.22,8.093,8.093,0,0,1,3.84,3.34,7.692,7.692,0,0,1,5.64,2,8,8,0,0,1,17,6.22Z"
            opacity="0.08" style="isolation: isolate" />
        <path d="M10,3h0a6,6,0,0,1,6,6h0a6,6,0,0,1-6,6h0A6,6,0,0,1,4,9H4A6,6,0,0,1,10,3Z" opacity="0.1"
            style="isolation: isolate" />
        <path d="M10.9,4h0a5,5,0,0,1,5,5h0a5,5,0,0,1-5,5h0a5,5,0,0,1-5-5h0A5,5,0,0,1,10.9,4Z" opacity="0.15"
            style="isolation: isolate" />
        <path
            d="M11.686,5.25h0A3.75,3.75,0,0,1,15.436,9h0a3.75,3.75,0,0,1-3.75,3.75h0A3.75,3.75,0,0,1,7.936,9h0A3.75,3.75,0,0,1,11.686,5.25Z"
            opacity="0.2" style="isolation: isolate" />
        <path
            d="M12.766,6.33h0A2.669,2.669,0,0,1,15.436,9h0a2.669,2.669,0,0,1-2.67,2.67h0A2.67,2.67,0,0,1,10.1,9h0A2.67,2.67,0,0,1,12.766,6.33Z"
            opacity="0.4" style="isolation: isolate" />
        <path
            d="M13.723,7.4h0a1.6,1.6,0,0,1,1.6,1.6h0a1.6,1.6,0,0,1-1.6,1.6h0a1.6,1.6,0,0,1-1.6-1.6h0a1.6,1.6,0,0,1,1.6-1.6Z"
            opacity="0.5" style="isolation: isolate" />
        <path d="M14.523,8.2h0a.8.8,0,0,1,.8.8h0a.8.8,0,0,1-.8.8h0a.8.8,0,0,1-.8-.8h0a.8.8,0,0,1,.8-.8Z" />
    </symbol>

    <symbol id="fill-conical-gradient" viewBox="0 0 18 18">
        <path d="M9.01,9H9l.01.01Z" />
        <path d="M9.01,9.014,9.028,9H9.01v.014Z" />
        <path d="M9.01,1V9H9L2.22,2.22l-.71-.71A1.793,1.793,0,0,1,2.75,1Z" fill-opacity="0" />
        <path d="M16.5,1.53l-.71.71L9.03,9H9.01V1h6.24A1.713,1.713,0,0,1,16.5,1.53Z" />
        <path d="M9,9H1.01V2.66a1.761,1.761,0,0,1,.5-1.15l.71.71Z" opacity="0.122" style="isolation: isolate" />
        <path d="M9.01,9.01v.01L2.24,15.79l-.71.71a1.674,1.674,0,0,1-.52-1.16V9H9Z" opacity="0.238"
            style="isolation: isolate" />
        <path d="M17,2.75V9H9.03l6.76-6.76.71-.71A1.712,1.712,0,0,1,17,2.75Z" opacity="0.718"
            style="isolation: isolate" />
        <path d="M17,9v6.25a1.728,1.728,0,0,1-.51,1.24l-.71-.71L9.01,9.02V9.01L9.03,9Z" opacity="0.6"
            style="isolation: isolate" />
        <path d="M9.01,9.02V17H2.75a1.712,1.712,0,0,1-1.22-.5l.71-.71Z" opacity="0.358" style="isolation: isolate" />
        <path d="M16.49,16.49a1.79,1.79,0,0,1-1.24.51H9.01V9.02l6.77,6.76Z" opacity="0.477"
            style="isolation: isolate" />
        <path
            d="M16.5,1H1.5a.5.5,0,0,0-.5.5v15a.5.5,0,0,0,.5.5h15a.5.5,0,0,0,.5-.5V1.5A.5.5,0,0,0,16.5,1ZM16,16H2V2H16Z" />
    </symbol>

    <symbol id="fill-pattern" viewBox="0 0 18 18">
        <path
            d="M16.5,1H1.5a.5.5,0,0,0-.5.5v15a.5.5,0,0,0,.5.5h15a.5.5,0,0,0,.5-.5V1.5A.5.5,0,0,0,16.5,1ZM16,16H2V2H16Z" />
        <rect x="11.957" y="2.814" width="3.224" height="3.224" transform="translate(0.845 10.891) rotate(-44.999)" />
        <rect x="11.957" y="7.392" width="3.224" height="3.224" transform="translate(-2.392 12.232) rotate(-45)" />
        <rect x="11.957" y="11.962" width="3.224" height="3.224" transform="translate(-5.624 13.57) rotate(-45)" />
        <rect x="7.397" y="2.814" width="3.224" height="3.224" transform="translate(-0.491 7.666) rotate(-44.999)" />
        <rect x="7.397" y="7.392" width="3.224" height="3.224" transform="translate(-3.728 9.007) rotate(-45)" />
        <rect x="7.397" y="11.962" width="3.224" height="3.224" transform="translate(-6.959 10.346) rotate(-45)" />
        <rect x="2.819" y="2.814" width="3.224" height="3.224" transform="translate(-1.832 4.429) rotate(-44.999)" />
        <rect x="2.819" y="7.392" width="3.224" height="3.224" transform="translate(-5.069 5.77) rotate(-45)" />
        <rect x="2.819" y="11.962" width="3.224" height="3.224" transform="translate(-8.3 7.109) rotate(-45)" />
    </symbol>

    <symbol id="fill-evenodd" viewBox="0 0 18 18">
        <path
            d="M15.562,2H2.437A.438.438,0,0,0,2,2.438V15.562A.438.438,0,0,0,2.437,16H15.562A.438.438,0,0,0,16,15.562V2.438A.438.438,0,0,0,15.562,2ZM9,13a4,4,0,1,1,4-4A4,4,0,0,1,9,13Z" />
    </symbol>

    <symbol id="fill-nonzero" viewBox="0 0 18 18">
        <circle cx="9" cy="9" r="3" />
        <path
            d="M15.562,2H2.437A.438.438,0,0,0,2,2.438V15.562A.438.438,0,0,0,2.437,16H15.562A.438.438,0,0,0,16,15.562V2.438A.438.438,0,0,0,15.562,2ZM9,13a4,4,0,1,1,4-4A4,4,0,0,1,9,13Z" />
    </symbol>

    <symbol id="swatch" viewBox="0 0 18 18">
        <path d="M7,2V7H2V2H7m.5-1h-6a.5.5,0,0,0-.5.5v6a.5.5,0,0,0,.5.5h6A.5.5,0,0,0,8,7.5v-6A.5.5,0,0,0,7.5,1Z" />
        <rect x="1" y="10" width="7" height="7" rx="0.5" />
        <rect x="10" y="1" width="7" height="7" rx="0.5" />
        <path d="M16,11v5H11V11h5m.5-1h-6a.5.5,0,0,0-.5.5v6a.5.5,0,0,0,.5.5h6a.5.5,0,0,0,.5-.5v-6a.5.5,0,0,0-.5-.5Z" />
    </symbol>

    <symbol id="player-start" viewBox="0 0 18 18">
        <rect x="1" y="2" width="3" height="14" rx="0.5" />
        <path
            d="M17,2.529V15.471a.521.521,0,0,1-.784.456L5.259,9.456a.531.531,0,0,1,0-.912L16.216,2.073A.521.521,0,0,1,17,2.529Z" />
    </symbol>

    <symbol id="player-end" viewBox="0 0 18 18">
        <rect x="14" y="2" width="3" height="14" rx="0.5" transform="translate(31 18) rotate(180)" />
        <path
            d="M1,2.529V15.471a.521.521,0,0,0,.784.456L12.741,9.456a.531.531,0,0,0,0-.912L1.784,2.073A.521.521,0,0,0,1,2.529Z" />
    </symbol>

    <symbol id="player-prevkey" viewBox="0 0 18 18">
        <rect x="14" y="2" width="3" height="14" rx="0.5" />
        <path
            d="M12,2.529V15.471a.479.479,0,0,1-.719.456L1.237,9.456a.557.557,0,0,1,0-.912L11.281,2.073A.479.479,0,0,1,12,2.529Z" />
    </symbol>

    <symbol id="player-nextkey" viewBox="0 0 18 18">
        <rect x="1" y="2" width="3" height="14" rx="0.5" transform="translate(5 18) rotate(180)" />
        <path
            d="M6,2.529V15.471a.479.479,0,0,0,.719.456L16.763,9.456a.557.557,0,0,0,0-.912L6.719,2.073A.479.479,0,0,0,6,2.529Z" />
    </symbol>

    <symbol id="player-reverseplay" viewBox="0 0 18 18">
        <path
            d="M14,2.529V15.471a.521.521,0,0,1-.784.456L2.259,9.456a.531.531,0,0,1,0-.912L13.216,2.073A.521.521,0,0,1,14,2.529Z" />
    </symbol>

    <symbol id="player-play" viewBox="0 0 18 18">
        <path
            d="M4,2.529V15.471a.521.521,0,0,0,.784.456L15.741,9.456a.531.531,0,0,0,0-.912L4.784,2.073A.521.521,0,0,0,4,2.529Z" />
    </symbol>

    <symbol id="player-record" viewBox="0 0 18 18">
        <circle cx="9" cy="9" r="8" />
    </symbol>

    <symbol id="player-stop" viewBox="0 0 18 18">
        <rect x="2" y="2" width="6" height="14" rx="0.5" transform="translate(10 18) rotate(180)" />
        <rect x="10" y="2" width="6" height="14" rx="0.5" transform="translate(26 18) rotate(180)" />
    </symbol>

    <symbol id="path" viewBox="0 0 18 18">
        <path
            d="M14,11a2.992,2.992,0,0,0-2.891,2.241c-1.182-.041-1.967-.272-2.22-.665-.4-.616.236-2.025.8-3.268.752-1.67,1.529-3.4.687-4.7C9.812,3.745,8.7,3.316,6.9,3.261a3,3,0,1,0-.006,1.5c1.182.041,1.967.272,2.22.665.4.616-.236,2.025-.795,3.268-.752,1.67-1.528,3.4-.687,4.7.559.864,1.674,1.293,3.474,1.348A3,3,0,1,0,14,11ZM4,5.5A1.5,1.5,0,1,1,5.5,4,1.5,1.5,0,0,1,4,5.5Zm10,10A1.5,1.5,0,1,1,15.5,14,1.5,1.5,0,0,1,14,15.5Z" />
    </symbol>

    <symbol id="radius-same" viewBox="0 0 18 18">
        <path
            d="M14,2a2,2,0,0,1,2,2V14a2,2,0,0,1-2,2H4a2,2,0,0,1-2-2V4A2,2,0,0,1,4,2H14m0-1H4A3,3,0,0,0,1,4V14a3,3,0,0,0,3,3H14a3,3,0,0,0,3-3V4a3,3,0,0,0-3-3Z" />
    </symbol>

    <symbol id="radius-separate" viewBox="0 0 18 18">
        <path d="M2,7V4A2,2,0,0,1,4,2H7V1H4A3,3,0,0,0,1,4V7Z" />
        <path d="M11,2h3a2,2,0,0,1,2,2V7h1V4a3,3,0,0,0-3-3H11Z" />
        <path d="M7,16H4a2,2,0,0,1-2-2V11H1v3a3,3,0,0,0,3,3H7Z" />
        <path d="M16,11v3a2,2,0,0,1-2,2H11v1h3a3,3,0,0,0,3-3V11Z" />
    </symbol>

    <symbol id="maintain-checked" viewBox="0 0 18 18">
        <path
            d="M14,9a3.419,3.419,0,0,0-3.333-3.5H7.333A3.419,3.419,0,0,0,4,9a3.419,3.419,0,0,0,3.333,3.5h3.334A3.419,3.419,0,0,0,14,9Z" />
        <path d="M7,14.5a5.5,5.5,0,0,1,0-11V2A7,7,0,0,0,7,16Z" />
        <path d="M11,2V3.5a5.5,5.5,0,0,1,0,11V16A7,7,0,0,0,11,2Z" />
    </symbol>

    <symbol id="maintain-unchecked" viewBox="0 0 18 18">
        <path d="M7,14.5a5.5,5.5,0,0,1,0-11V2A7,7,0,0,0,7,16Z" />
        <path d="M11,2V3.5a5.5,5.5,0,0,1,0,11V16A7,7,0,0,0,11,2Z" />
    </symbol>

    <symbol id="rotate" viewBox="0 0 18 18">
        <path
            d="M15.935,9H14.674a7.307,7.307,0,0,1,.076,1A6.522,6.522,0,0,1,8.5,16.75,6.522,6.522,0,0,1,2.25,10,6.568,6.568,0,0,1,8,3.277V5.8a.185.185,0,0,0,.086.151.306.306,0,0,0,.362-.017L11.928,3.1a.172.172,0,0,0,0-.282L8.448.068A.29.29,0,0,0,8.256,0,.234.234,0,0,0,8,.2V2.027A7.8,7.8,0,0,0,1,10a7.762,7.762,0,0,0,7.5,8A7.762,7.762,0,0,0,16,10,8.453,8.453,0,0,0,15.935,9Z" />
        <rect x="8" y="10" width="1" height="1" />
    </symbol>

    <symbol id="add-color" viewBox="0 0 18 18">
        <rect x="1" y="5" width="1" height="2" />
        <path d="M2,16V14H1v2.5a.5.5,0,0,0,.5.5H4V16Z" />
        <rect x="1" y="11" width="1" height="2" />
        <rect x="1" y="8" width="1" height="2" />
        <path d="M2,2H4V1H1.5a.5.5,0,0,0-.5.5V4H2Z" />
        <rect x="11" y="1" width="2" height="1" />
        <rect x="8" y="1" width="2" height="1" />
        <rect x="5" y="1" width="2" height="1" />
        <rect x="16" y="8" width="1" height="2" />
        <rect x="16" y="11" width="1" height="2" />
        <rect x="16" y="5" width="1" height="2" />
        <path d="M16.5,1H14V2h2V4h1V1.5A.5.5,0,0,0,16.5,1Z" />
        <rect x="8" y="16" width="2" height="1" />
        <rect x="5" y="16" width="2" height="1" />
        <rect x="11" y="16" width="2" height="1" />
        <path d="M16,16H14v1h2.5a.5.5,0,0,0,.5-.5V14H16Z" />
        <path
            d="M12.5,8H10V5.5A.5.5,0,0,0,9.5,5h-1a.5.5,0,0,0-.5.5V8H5.5a.5.5,0,0,0-.5.5v1a.5.5,0,0,0,.5.5H8v2.5a.5.5,0,0,0,.5.5h1a.5.5,0,0,0,.5-.5V10h2.5a.5.5,0,0,0,.5-.5v-1A.5.5,0,0,0,12.5,8Z" />
    </symbol>

    <symbol id="boolean-add" viewBox="0 0 18 18">
        <path
            d="M15.5,6H12V2.5a.5.5,0,0,0-.5-.5h-9a.5.5,0,0,0-.5.5v9a.5.5,0,0,0,.5.5H6v3.5a.5.5,0,0,0,.5.5h9a.5.5,0,0,0,.5-.5v-9A.5.5,0,0,0,15.5,6Z" />

    </symbol>

    <symbol id="boolean-divide" viewBox="0 0 18 18">
        <rect x="7" y="7" width="4" height="4" />
        <path d="M15.5,6H12v6H6v3.5a.5.5,0,0,0,.5.5h9a.5.5,0,0,0,.5-.5v-9A.5.5,0,0,0,15.5,6Z" />
        <path d="M12,6V2.5a.5.5,0,0,0-.5-.5h-9a.5.5,0,0,0-.5.5v9a.5.5,0,0,0,.5.5H6V6Z" />
    </symbol>

    <symbol id="boolean-intersect" viewBox="0 0 18 18">
        <path
            d="M15.5,6H12V2.5a.508.508,0,0,0-.5-.5h-9a.508.508,0,0,0-.5.5v9a.508.508,0,0,0,.5.5H6v3.5a.5.5,0,0,0,.5.5h9a.508.508,0,0,0,.5-.5v-9A.5.5,0,0,0,15.5,6ZM3,11V3h8V6H6.5a.5.5,0,0,0-.5.5V11Zm12,4H7V12h4.5a.508.508,0,0,0,.5-.5V7h3Z" />
    </symbol>

    <symbol id="boolean-overlap" viewBox="0 0 18 18">
        <path d="M6.5,6H12V2.5a.5.5,0,0,0-.5-.5h-9a.5.5,0,0,0-.5.5v9a.5.5,0,0,0,.5.5H6V6.5A.5.5,0,0,1,6.5,6Z" />
        <path d="M15.5,6H12v5.5a.5.5,0,0,1-.5.5H6v3.5a.5.5,0,0,0,.5.5h9a.5.5,0,0,0,.5-.5v-9A.5.5,0,0,0,15.5,6Z" />
    </symbol>

    <symbol id="boolean-substract" viewBox="0 0 18 18">
        <path
            d="M15.5,6H12V2.5a.5.5,0,0,0-.5-.5h-9a.5.5,0,0,0-.5.5v9a.5.5,0,0,0,.5.5H6v3.5a.5.5,0,0,0,.5.5h9a.5.5,0,0,0,.5-.5v-9A.5.5,0,0,0,15.5,6ZM15,15H7V7h8Z" />
    </symbol>

    <symbol id="bring-forward" viewBox="0 0 18 18">
        <rect y="0.987" width="9" height="7" rx="0.5" />
        <path
            d="M17.75,8.976H15.841v3.5a.5.5,0,0,1-.5.5h-2a.5.5,0,0,1-.5-.5v-3.5H10.818a.243.243,0,0,1-.187-.084.25.25,0,0,1,.021-.353l3.689-3.563,3.575,3.563A.254.254,0,0,1,18,8.727.249.249,0,0,1,17.75,8.976Z" />
        <path
            d="M8.5,16.987H.5a.5.5,0,0,1-.5-.5v-6a.5.5,0,0,1,.5-.5h8a.5.5,0,0,1,.5.5v6A.5.5,0,0,1,8.5,16.987Zm-.5-6H1v5H8Z" />
    </symbol>

    <symbol id="send-backward" viewBox="0 0 18 18">
        <rect y="10" width="9" height="7" rx="0.5" />
        <path
            d="M17.75,9.011H15.841v-3.5a.5.5,0,0,0-.5-.5h-2a.5.5,0,0,0-.5.5v3.5H10.818a.247.247,0,0,0-.187.084.25.25,0,0,0,.021.353l3.689,3.563,3.575-3.563A.253.253,0,0,0,18,9.261.25.25,0,0,0,17.75,9.011Z" />
        <path d="M8.5,1H.5a.5.5,0,0,0-.5.5v6A.5.5,0,0,0,.5,8h8A.5.5,0,0,0,9,7.5v-6A.5.5,0,0,0,8.5,1ZM8,7H1V2H8Z" />
    </symbol>

    <symbol id="bring-front" viewBox="0 0 18 18">
        <rect y="1" width="9" height="7" rx="0.5" />
        <rect y="16" width="1" height="1" />
        <rect x="2" y="16" width="1" height="1" />
        <rect y="14" width="1" height="1" />
        <rect y="12" width="1" height="1" />
        <rect y="10" width="1" height="1" />
        <rect x="2" y="10" width="1" height="1" />
        <rect x="4" y="16" width="1" height="1" />
        <rect x="4" y="10" width="1" height="1" />
        <rect x="8" y="16" width="1" height="1" />
        <rect x="6" y="16" width="1" height="1" />
        <rect x="6" y="10" width="1" height="1" />
        <rect x="8" y="14" width="1" height="1" />
        <rect x="8" y="12" width="1" height="1" />
        <rect x="8" y="10" width="1" height="1" />
        <path
            d="M17.916,8.552,14.341,4.989,10.652,8.552a.25.25,0,0,0-.021.353.247.247,0,0,0,.187.084h2.023v3.5a.5.5,0,0,0,.5.5h2a.5.5,0,0,0,.5-.5v-3.5H17.75a.25.25,0,0,0,.25-.25A.253.253,0,0,0,17.916,8.552Z" />
    </symbol>

    <symbol id="send-back" viewBox="0 0 18 18">
        <rect y="10" width="9" height="7" rx="0.5" />
        <rect y="1" width="1" height="1" />
        <rect x="2" y="1" width="1" height="1" />
        <rect y="3" width="1" height="1" />
        <rect y="5" width="1" height="1" />
        <rect y="7" width="1" height="1" />
        <rect x="2" y="7" width="1" height="1" />
        <rect x="4" y="1" width="1" height="1" />
        <rect x="4" y="7" width="1" height="1" />
        <rect x="8" y="1" width="1" height="1" />
        <rect x="6" y="1" width="1" height="1" />
        <rect x="6" y="7" width="1" height="1" />
        <rect x="8" y="3" width="1" height="1" />
        <rect x="8" y="5" width="1" height="1" />
        <rect x="8" y="7" width="1" height="1" />
        <path
            d="M17.916,9.448l-3.575,3.563L10.652,9.448a.25.25,0,0,1-.021-.353.247.247,0,0,1,.187-.084h2.023v-3.5a.5.5,0,0,1,.5-.5h2a.5.5,0,0,1,.5.5v3.5H17.75a.25.25,0,0,1,.25.25A.253.253,0,0,1,17.916,9.448Z" />
    </symbol>

    <symbol id="cap-butt" viewBox="0 0 18 18">
        <circle cx="5.5" cy="9.5" r="1.5" />
        <path
            d="M5.5,12.5a3.048,3.048,0,0,1-.5-.05V15.5a.5.5,0,0,0,.5.5h10a.5.5,0,0,0,.5-.5V10H8.45A3,3,0,0,1,5.5,12.5Z" />
        <path
            d="M5.5,2a.5.5,0,0,0-.5.5V6.55a3.048,3.048,0,0,1,.5-.05,2.99,2.99,0,0,1,2.816,2H16v-6a.5.5,0,0,0-.5-.5Z" />
    </symbol>

    <symbol id="cap-square" viewBox="0 0 18 18">
        <path
            d="M10.45,10a3.009,3.009,0,1,1-.134-1.5H16v-6a.5.5,0,0,0-.5-.5H2.5a.5.5,0,0,0-.5.5v13a.5.5,0,0,0,.5.5h13a.5.5,0,0,0,.5-.5V10Z" />
        <circle cx="7.5" cy="9.5" r="1.5" />
    </symbol>

    <symbol id="cap-round" viewBox="0 0 18 18">
        <path
            d="M11.45,10a3.009,3.009,0,1,1-.134-1.5H16v-6a.5.5,0,0,0-.5-.5H9A7,7,0,0,0,2,9H2a7,7,0,0,0,7,7h6.5a.5.5,0,0,0,.5-.5V10Z" />
        <circle cx="8.5" cy="9.5" r="1.5" />
    </symbol>

    <symbol id="stroke-center" viewBox="0 0 18 18">
        <path d="M9.5,11.316V16h6a.5.5,0,0,0,.5-.5V9H11.45A2.989,2.989,0,0,1,9.5,11.316Z" />
        <circle cx="8.5" cy="8.5" r="1.5" />
        <path d="M2,2.5v13a.5.5,0,0,0,.5.5H8V11.45A3,3,0,1,1,11.316,7.5H16v-5a.5.5,0,0,0-.5-.5H2.5A.5.5,0,0,0,2,2.5Z" />
    </symbol>

    <symbol id="stroke-inside" viewBox="0 0 18 18">
        <path d="M7.5,8.74V16h8a.5.5,0,0,0,.5-.5v-8H8.74A4.309,4.309,0,0,1,7.5,8.74Z" />
        <path
            d="M7.95,4.5A3,3,0,1,0,4.5,7.95V16H6V7.82a2.3,2.3,0,0,0,.5-.24.567.567,0,0,0,.13-.08,2.779,2.779,0,0,0,.87-.87.567.567,0,0,0,.08-.13A2.3,2.3,0,0,0,7.82,6H16V4.5ZM5,6.5A1.5,1.5,0,1,1,6.5,5,1.5,1.5,0,0,1,5,6.5Z" />
    </symbol>

    <symbol id="stroke-outside" viewBox="0 0 18 18">
        <path
            d="M2,2.5v13a.5.5,0,0,0,.5.5H10V13.45A3,3,0,1,1,13.316,9.5H16v-7a.5.5,0,0,0-.5-.5H2.5A.5.5,0,0,0,2,2.5Z" />
        <circle cx="10.5" cy="10.5" r="1.5" />
        <path d="M11.5,13.32V16H13V14.24a4.44,4.44,0,0,0,1.53-1.74H16V11H13.45A2.943,2.943,0,0,1,11.5,13.32Z" />
    </symbol>

    <symbol id="join-bevel" viewBox="0 0 18 18">
        <path d="M8,10V2H2v8.414a.249.249,0,0,0,.073.177l5.336,5.336A.249.249,0,0,0,7.586,16H16V10Z" />

    </symbol>

    <symbol id="join-miter" viewBox="0 0 18 18">
        <path
            d="M8,10V2.5A.5.5,0,0,0,7.5,2h-5a.5.5,0,0,0-.5.5v13a.5.5,0,0,0,.5.5h13a.5.5,0,0,0,.5-.5v-5a.5.5,0,0,0-.5-.5Z" />
    </symbol>

    <symbol id="join-round" viewBox="0 0 18 18">
        <path
            d="M8,10V2.5A.5.5,0,0,0,7.5,2h-5a.5.5,0,0,0-.5.5V10a6,6,0,0,0,6,6h7.5a.5.5,0,0,0,.5-.5v-5a.5.5,0,0,0-.5-.5Z" />
    </symbol>

    <symbol id="selection-tool" viewBox="0 0 18 18">
        <path d="M14.419,11.063l-10-10a.253.253,0,0,0-.356.021A.257.257,0,0,0,4,1.244v14.5a.25.25,0,0,0,.425.182L8.091,13.18l1.882,3.681a.251.251,0,0,0,.336.113h0l1.552-.774a.25.25,0,0,0,.113-.335h0l-1.831-3.58,4.121-.783a.25.25,0,0,0,.156-.435Z" />
    </symbol>

    <symbol id="direct-selection-tool" viewBox="0 0 18 18">
        <path d="M15.921,11.727,4.419,1.065A.251.251,0,0,0,4,1.245v15.5A.251.251,0,0,0,4.25,17h0a.253.253,0,0,0,.175-.07l4.534-4.321a.239.239,0,0,1,.159-.069l6.647-.378A.252.252,0,0,0,16,11.9a.244.244,0,0,0-.08-.17Zm-6.86-.189a1.234,1.234,0,0,0-.8.347L5,15V2.961l8.95,8.3Z" />
    </symbol>

    <symbol id="transform-tool" viewBox="0 0 18 18">
        <circle cx="11.5" cy="12.5" r="0.625" />
        <path
            d="M7.66,10.18l2.63-.16a.224.224,0,0,0,.21-.24.213.213,0,0,0-.07-.15L8.4,7.7,6.84,6.22.37.07A.213.213,0,0,0,.22,0,.222.222,0,0,0,0,.22V14.14a.224.224,0,0,0,.22.23.339.339,0,0,0,.15-.06l3.97-3.88a.267.267,0,0,1,.14-.07l2.43-.15Z" />
        <path
            d="M17,15.09V8.91A1.5,1.5,0,1,0,15.09,7H9.84l1.05,1h4.2a1.517,1.517,0,0,0,.91.91v6.18a1.517,1.517,0,0,0-.91.91H7.91A1.517,1.517,0,0,0,7,15.09V11.71l-1,.06v3.32A1.5,1.5,0,1,0,7.91,17h7.18A1.5,1.5,0,1,0,17,15.09ZM6.5,17.12a.62.62,0,1,1,.62-.62A.611.611,0,0,1,6.5,17.12ZM15.88,7.5a.62.62,0,1,1,.62.62A.611.611,0,0,1,15.88,7.5Zm.62,9.62a.62.62,0,1,1,.62-.62A.611.611,0,0,1,16.5,17.12Z" />
    </symbol>

    <symbol id="transform-tool-alt" viewBox="0 0 18 18">
        <path
            d="M1,1.245v15.5a.251.251,0,0,0,.425.182l4.533-4.32a.246.246,0,0,1,.159-.069l6.646-.378a.25.25,0,0,0,.156-.435L1.419,1.065a.25.25,0,0,0-.354.018A.254.254,0,0,0,1,1.245Z" />
    </symbol>

    <symbol id="pen-tool" viewBox="0 0 18 18">
        <path
            d="M16.3,6l-4.6-4.6a.5.5,0,0,0-.708,0L8.972,3.434,3.09,6.5a.227.227,0,0,0-.119.16L1,16.725A.232.232,0,0,0,1.23,17a.246.246,0,0,0,.053-.006L11.347,15a.229.229,0,0,0,.153-.118l2.8-6.166L16.3,6.71A.5.5,0,0,0,16.3,6Zm-5.719,7.874-7.1,1.407,3.169-3.169a1.251,1.251,0,1,0-.707-.708l-3.27,3.27L4.1,7.383,9.077,4.789l3.872,3.872Z" />
    </symbol>

    <symbol id="colorpicker-tool" viewBox="0 0 18 18">
        <path
            d="M16.2,1.958l-.153-.153a2.753,2.753,0,0,0-3.89,0L9.6,4.356l-.034-.033a.668.668,0,0,0-.943,0h0l-.172.171a.67.67,0,0,0,0,.945l.286.286L5.18,9.283C4.024,10.438,2.173,12.7,2.173,12.7s-.377,1.943-.6,2.713l-.367.367a.714.714,0,0,0,0,1.01h0a.715.715,0,0,0,1.011,0h0l.367-.367c.77-.22,2.713-.6,2.713-.6s2.262-1.851,3.417-3.007l3.558-3.557.286.285a.668.668,0,0,0,.943,0h0l.172-.171a.668.668,0,0,0,0-.943h0L13.642,8.4l2.552-2.551a2.749,2.749,0,0,0,0-3.888l0,0ZM8.008,12.106c-.91.909-2.583,2.309-3.149,2.778-.451.09-1.4.282-2.089.45-.012-.021-.025-.04-.039-.06h0a.617.617,0,0,0-.06-.039c.167-.691.36-1.638.45-2.089C3.59,12.58,4.987,10.91,5.9,10L9.457,6.439l2.108,2.109Z" />
    </symbol>

    <symbol id="gradient-tool" viewBox="0 0 18 18">
        <rect x="2" y="11.571" width="14" height="1.714" opacity="0.124" style="isolation: isolate" />
        <rect x="2" y="9.857" width="14" height="1.714" opacity="0.242" style="isolation: isolate" />
        <rect x="2" y="8.143" width="14" height="1.714" opacity="0.319" style="isolation: isolate" />
        <rect x="2" y="6.429" width="14" height="1.714" opacity="0.476" style="isolation: isolate" />
        <rect x="2" y="4.714" width="14" height="1.714" opacity="0.597" style="isolation: isolate" />
        <rect x="2" y="3" width="14" height="1.714" opacity="0.725" style="isolation: isolate" />
        <path
            d="M16.5,2H11V.5a.5.5,0,0,0-.5-.5h-3A.5.5,0,0,0,7,.5V2H1.5a.5.5,0,0,0-.5.5v13a.5.5,0,0,0,.5.5H7v1.5a.5.5,0,0,0,.5.5h3a.5.5,0,0,0,.5-.5V16h5.5a.5.5,0,0,0,.5-.5V2.5A.5.5,0,0,0,16.5,2ZM8,1h2V3H8ZM2,15V3H7v.5a.5.5,0,0,0,.5.5h1V14h-1a.5.5,0,0,0-.5.5V15Zm8,2H8V15h2Zm6-2H11v-.5a.5.5,0,0,0-.5-.5h-1V4h1a.5.5,0,0,0,.5-.5V3h5Z" />
    </symbol>

    <symbol id="shaper-tool" viewBox="0 0 18 18">
        <path
            d="M14.331,15.084l1.83-.111a.156.156,0,0,0,.146-.167.149.149,0,0,0-.049-.1l-1.412-1.343-1.086-1.03-4.5-4.279A.145.145,0,0,0,9.153,8,.155.155,0,0,0,9,8.153V17.84a.157.157,0,0,0,.153.16.228.228,0,0,0,.1-.042l2.763-2.7a.187.187,0,0,1,.1-.049l1.691-.1Z" />
        <rect x="5" y="5" width="1" height="1" />
        <rect x="7" y="5" width="1" height="1" />
        <rect x="9" y="5" width="1" height="1" />
        <rect x="5" y="7" width="1" height="1" />
        <rect x="5" y="9" width="1" height="1" />
        <path
            d="M15.5,5H12.82A6.5,6.5,0,1,0,5,12.819V15.5a.5.5,0,0,0,.5.5H7V15H6V11H5v.784A5.5,5.5,0,1,1,11.79,5H11V6h4v5h1V5.5A.5.5,0,0,0,15.5,5Z" />
    </symbol>

    <symbol id="line-tool" viewBox="0 0 18 18">
        <rect x="-0.9" y="8.5" width="19.799" height="1" rx="0.25" transform="translate(-3.728 9) rotate(-45)" />
    </symbol>

    <symbol id="polyline-tool" viewBox="0 0 18 18">
        <path
            d="M16.147,16.854,2,2.707V12H1V1.5a.5.5,0,0,1,.853-.354L16,15.291,15.986,6h1L17,16.5A.5.5,0,0,1,16.147,16.854Z" />
    </symbol>

    <symbol id="rectangle-tool" viewBox="0 0 18 18">
        <path
            d="M16.5,2H1.5a.5.5,0,0,0-.5.5v13a.5.5,0,0,0,.5.5h15a.5.5,0,0,0,.5-.5V2.5A.5.5,0,0,0,16.5,2ZM16,15H2V3H16Z" />
    </symbol>

    <symbol id="ellipse-tool" viewBox="0 0 18 18">
        <path d="M9,2A7,7,0,1,1,2,9,7.008,7.008,0,0,1,9,2M9,1a8,8,0,1,0,8,8A8,8,0,0,0,9,1Z" />
    </symbol>

    <symbol id="polygon-tool" viewBox="0 0 18 18">
        <path
            d="M9,2.944,16.234,15H1.766L9,2.944M9,1.472a.5.5,0,0,0-.429.243L.454,15.243A.5.5,0,0,0,.883,16H17.117a.5.5,0,0,0,.429-.757L9.429,1.715A.5.5,0,0,0,9,1.472Z" />
    </symbol>

    <symbol id="star-tool" viewBox="0 0 18 18">
        <path
            d="M9,1.874l1.922,3.861a1.3,1.3,0,0,0,.976.705l4.28.616-3.091,2.987a1.29,1.29,0,0,0-.376,1.15l.731,4.229-3.842-2a1.3,1.3,0,0,0-1.2,0l-3.842,2,.731-4.229a1.29,1.29,0,0,0-.376-1.15L1.822,7.056,6.1,6.44a1.3,1.3,0,0,0,.976-.7L9,1.874M9,0a.294.294,0,0,0-.266.164L6.183,5.289a.3.3,0,0,1-.223.161L.254,6.272a.293.293,0,0,0-.164.5l4.129,3.99a.294.294,0,0,1,.085.259l-.975,5.634A.3.3,0,0,0,3.621,17a.309.309,0,0,0,.138-.034l5.1-2.66a.3.3,0,0,1,.276,0l5.1,2.66a.309.309,0,0,0,.138.034.3.3,0,0,0,.292-.344L13.7,11.022a.294.294,0,0,1,.085-.259l4.129-3.99a.293.293,0,0,0-.164-.5L12.04,5.45a.3.3,0,0,1-.223-.161L9.266.164A.294.294,0,0,0,9,0Z" />
    </symbol>

    <symbol id="polygon" viewBox="0 0 18 18">
        <path d="M12.934,3l3.9,6.5-3.9,6.5H5.066l-3.9-6.5L5.066,3h7.868M13.5,2h-9L0,9.5,4.5,17h9L18,9.5,13.5,2Z" />
    </symbol>

    <symbol id="ellipse" viewBox="0 0 18 18">
        <path
            d="M9,3c3.86,0,7,2.692,7,6s-3.14,6-7,6S2,12.308,2,9,5.14,3,9,3M9,2C4.582,2,1,5.134,1,9s3.582,7,8,7,8-3.134,8-7S13.418,2,9,2Z" />
    </symbol>

    <symbol id="guidelines-toggle" viewBox="0 0 18 18">
        <path
            d="M16.75,4H5V1.25A.25.25,0,0,0,4.75,1h-.5A.25.25,0,0,0,4,1.25V4H1.25A.25.25,0,0,0,1,4.25v.5A.25.25,0,0,0,1.25,5H4V16.75a.25.25,0,0,0,.25.25h.5A.25.25,0,0,0,5,16.75V5H16.75A.25.25,0,0,0,17,4.75v-.5A.25.25,0,0,0,16.75,4Z" />
    </symbol>

    <symbol id="ruler-toggle" viewBox="0 0 18 18">
        <path
            d="M14.5,1H2.5a.5.5,0,0,0-.5.5v14a.5.5,0,0,0,.5.5h2a.5.5,0,0,0,.5-.5V4h9.5a.5.5,0,0,0,.5-.5v-2A.5.5,0,0,0,14.5,1ZM4,15H3V14H4Zm0-2H3V12H4Zm0-2H3V10H4ZM4,9H3V8H4ZM4,7H3V6H4ZM4,5H3V4H4ZM6,3H5V2H6ZM8,3H7V2H8Zm2,0H9V2h1Zm2,0H11V2h1Zm2,0H13V2h1Z" />
    </symbol>

    <symbol id="rulergrid" viewBox="0 0 18 18">
        <path d="M9,1H1.25A.25.25,0,0,0,1,1.25V9H2V2H9Z" />
        <path d="M9,17h7.75a.25.25,0,0,0,.25-.25V9H16v7H9Z" />
        <path
            d="M16.778,4.257,13.243.722a.5.5,0,0,0-.707,0L10.483,2.775l1.871,1.871-.708.708L9.776,3.482,8.483,4.775l2.871,2.871-.708.708L7.776,5.482,6.483,6.775,8.354,8.646l-.708.708L5.776,7.482,4.483,8.775l2.871,2.871-.708.708L3.776,9.482,1.222,12.036a.5.5,0,0,0,0,.707l3.535,3.535a.5.5,0,0,0,.707,0L16.778,4.964A.5.5,0,0,0,16.778,4.257Z" />
    </symbol>

    <symbol id="grid-toggle" viewBox="0 0 18 18">
        <path
            d="M16.75,7A.25.25,0,0,0,17,6.75V5.25A.25.25,0,0,0,16.75,5H13V1.25A.25.25,0,0,0,12.75,1h-1.5a.25.25,0,0,0-.25.25V5H7V1.25A.25.25,0,0,0,6.75,1H5.25A.25.25,0,0,0,5,1.25V5H1.25A.25.25,0,0,0,1,5.25v1.5A.25.25,0,0,0,1.25,7H5v4H1.25a.25.25,0,0,0-.25.25v1.5a.25.25,0,0,0,.25.25H5v3.75a.25.25,0,0,0,.25.25h1.5A.25.25,0,0,0,7,16.75V13h4v3.75a.25.25,0,0,0,.25.25h1.5a.25.25,0,0,0,.25-.25V13h3.75a.25.25,0,0,0,.25-.25v-1.5a.25.25,0,0,0-.25-.25H13V7ZM11,11H7V7h4Z" />
    </symbol>

    <symbol id="snap" viewBox="0 0 18 18">
        <path
            d="M15.5,1h-3a.5.5,0,0,0-.5.5V9.83A3.114,3.114,0,0,1,9.161,13c-.054,0-.108,0-.161,0a3,3,0,0,1-3-3V1.5A.5.5,0,0,0,5.5,1h-3a.5.5,0,0,0-.5.5V9.706A7.2,7.2,0,0,0,8.785,17L9,17a7,7,0,0,0,7-7V1.5A.5.5,0,0,0,15.5,1ZM9,16l-.185,0A6.2,6.2,0,0,1,3,9.706V5H5v5a4,4,0,0,0,4,4c.071,0,.142,0,.214-.006A4.089,4.089,0,0,0,13,9.83V5h2v5A6.007,6.007,0,0,1,9,16Z" />
    </symbol>

    <symbol id="switch-horizontal" viewBox="0 0 18 18">
        <rect y="5" width="8" height="8" rx="0.5" />
        <path d="M17,6v6H11V6h6m.5-1h-7a.5.5,0,0,0-.5.5v7a.5.5,0,0,0,.5.5h7a.5.5,0,0,0,.5-.5v-7a.5.5,0,0,0-.5-.5Z" />
        <path
            d="M6.5,2V.75A.25.25,0,0,0,6.25.5a.244.244,0,0,0-.175.073L4.059,2.342a.25.25,0,0,0,0,.316L6.075,4.427A.244.244,0,0,0,6.25,4.5a.25.25,0,0,0,.25-.25V3H14V2Z" />
        <path
            d="M13.944,15.342l-2.017-1.769a.244.244,0,0,0-.175-.073.25.25,0,0,0-.25.25V15H4v1h7.5v1.25a.25.25,0,0,0,.25.25.244.244,0,0,0,.175-.073l2.017-1.769A.25.25,0,0,0,13.944,15.342Z" />
    </symbol>

    <symbol id="switch-vertical" viewBox="0 0 18 18">
        <rect x="5" width="8" height="8" rx="0.5" transform="translate(13 -5) rotate(90)" />
        <path d="M12,17H6V11h6v6m1,.5v-7a.5.5,0,0,0-.5-.5h-7a.5.5,0,0,0-.5.5v7a.5.5,0,0,0,.5.5h7a.5.5,0,0,0,.5-.5Z" />
        <path
            d="M16,6.5h1.25a.25.25,0,0,0,.25-.25.244.244,0,0,0-.073-.175L15.658,4.059a.25.25,0,0,0-.316,0L13.573,6.075a.244.244,0,0,0-.073.175.25.25,0,0,0,.25.25H15V14h1Z" />
        <path
            d="M2.658,13.944l1.769-2.017a.244.244,0,0,0,.073-.175.25.25,0,0,0-.25-.25H3V4H2v7.5H.75a.25.25,0,0,0-.25.25.244.244,0,0,0,.073.175l1.769,2.017A.25.25,0,0,0,2.658,13.944Z" />
    </symbol>

    <symbol id="text-tool" viewBox="0 0 18 18">
        <path d="M3,2V6h.5c0-2.5.5-3,3-3H8V14.5c0,1.5-.5,2-2,2V17h6v-.5c-1.5,0-2-.5-2-2V3h1.5c2.5,0,3,.5,3,3H15V2Z" />
    </symbol>

    <symbol id="zoom-tool" viewBox="0 0 18 18">
        <path
            d="M16.586,15.107,12.7,11.221A6.413,6.413,0,1,0,11.221,12.7l3.886,3.886a1.05,1.05,0,0,0,1.479-1.479ZM7.5,12A4.5,4.5,0,1,1,12,7.5,4.5,4.5,0,0,1,7.5,12Z" />
    </symbol>

    <symbol id="checkbox-unchecked" viewBox="0 0 18 18">
        <path
            d="M15,3V15H3V3H15m.5-1H2.5a.5.5,0,0,0-.5.5v13a.5.5,0,0,0,.5.5h13a.5.5,0,0,0,.5-.5V2.5a.5.5,0,0,0-.5-.5Z" />
    </symbol>

    <symbol id="checkbox-checked" viewBox="0 0 18 18">
        <path
            d="M15,3V15H3V3H15m.5-1H2.5a.5.5,0,0,0-.5.5v13a.5.5,0,0,0,.5.5h13a.5.5,0,0,0,.5-.5V2.5a.5.5,0,0,0-.5-.5Z" />
        <rect x="5" y="5" width="8" height="8" rx="0.5" />
    </symbol>

    <symbol id="radio-unchecked" viewBox="0 0 18 18">
        <path d="M9,3A6,6,0,1,1,3,9,6.007,6.007,0,0,1,9,3M9,2a7,7,0,1,0,7,7A7,7,0,0,0,9,2Z" />
    </symbol>

    <symbol id="radio-checked" viewBox="0 0 18 18">
        <path d="M9,3A6,6,0,1,1,3,9,6.007,6.007,0,0,1,9,3M9,2a7,7,0,1,0,7,7A7,7,0,0,0,9,2Z" />
        <circle cx="9" cy="9" r="4" />
    </symbol>

    <symbol id="pan-tool" viewBox="0 0 18 18">
        <path
            d="M16.844,4.014a1.564,1.564,0,0,0-1.884.971c-.332.91-.809,3.011-1.011,3.458a.168.168,0,0,1-.318-.1c.146-.75.567-3.825.817-5.2a1.633,1.633,0,0,0-3.213-.588c-.255,1.381-.455,4.474-.618,5.289a.194.194,0,0,1-.384-.023c-.086-1.036-.349-4.367-.475-5.829a1.632,1.632,0,1,0-3.252.281c.137,1.594.518,4.73.612,5.86a.092.092,0,0,1-.179.039C6.682,7.463,5.872,4.96,5.453,3.814a1.646,1.646,0,0,0-3.144.977c.013.041.028.083.044.123.637,1.831,1.811,5.167,2.171,6.25a.219.219,0,0,1-.381.2c-.122-.155-.653-1.1-1-1.546A1.762,1.762,0,0,0,.381,12.007l.033.04a51.332,51.332,0,0,0,5.13,5.4,2.837,2.837,0,0,0,2.016.533h5.155A1.838,1.838,0,0,0,14.424,16.7L17.911,6.014a1.563,1.563,0,0,0-.99-1.976C16.9,4.029,16.87,4.022,16.844,4.014Z" />
    </symbol>

    <symbol id="save" viewBox="0 0 18 18">
        <path
            d="M15.854,5.854,12.146,2.146A.5.5,0,0,0,11.793,2H2.5a.5.5,0,0,0-.5.5v13a.5.5,0,0,0,.5.5h13a.5.5,0,0,0,.5-.5V6.207A.5.5,0,0,0,15.854,5.854ZM9,12.25A2.25,2.25,0,1,1,11.25,10,2.25,2.25,0,0,1,9,12.25ZM11,4.5a.5.5,0,0,1-.5.5h-7A.5.5,0,0,1,3,4.5v-1A.5.5,0,0,1,3.5,3h7a.5.5,0,0,1,.5.5Z" />
    </symbol>

    <symbol id="fit-view" viewBox="0 0 18 18">
        <path d="M6.073,1.427,1.427,6.077A.25.25,0,0,1,1,5.9V1.25A.25.25,0,0,1,1.25,1H5.9A.25.25,0,0,1,6.073,1.427Z" />
        <path
            d="M11.927,1.427l4.646,4.65A.25.25,0,0,0,17,5.9V1.25A.25.25,0,0,0,16.75,1H12.1A.25.25,0,0,0,11.927,1.427Z" />
        <path
            d="M6.073,16.573l-4.646-4.65A.25.25,0,0,0,1,12.1v4.65a.25.25,0,0,0,.25.25H5.9A.25.25,0,0,0,6.073,16.573Z" />
        <path
            d="M11.927,16.573l4.646-4.65A.25.25,0,0,1,17,12.1v4.65a.25.25,0,0,1-.25.25H12.1A.25.25,0,0,1,11.927,16.573Z" />
    </symbol>

    <symbol id="anchor-straight" viewBox="0 0 18 18">
        <path
            d="M17.823,15.116,12,9.293V4.5a.5.5,0,0,0-.5-.5h-5a.5.5,0,0,0-.5.5V9.293L.177,15.116a.25.25,0,0,0,0,.354l.353.353a.25.25,0,0,0,.354,0L6.707,10h4.586l5.823,5.823a.25.25,0,0,0,.354,0l.353-.353A.25.25,0,0,0,17.823,15.116ZM11,9H7V5h4Z" />
    </symbol>

    <symbol id="anchor-mirrored" viewBox="0 0 18 18">
        <path
            d="M12.2,7h2.888a1.5,1.5,0,1,0,0-1H12V4.5a.5.5,0,0,0-.5-.5h-5a.5.5,0,0,0-.5.5V6H2.908a1.5,1.5,0,1,0,0,1H5.8C.089,8.949,0,15.921,0,16H1c0-.3.082-6.263,5-8.007V9.5a.5.5,0,0,0,.5.5h5a.5.5,0,0,0,.5-.5V7.993C16.918,9.737,17,15.7,17,16h1C18,15.921,17.911,8.949,12.2,7ZM11,9H7V5h4Z" />
    </symbol>

    <symbol id="anchor-asymmetric" viewBox="0 0 18 18">
        <path
            d="M17.7,14.951,12.049,9.305c-.014-.014-.033-.011-.049-.021V7h1.092a1.5,1.5,0,1,0,0-1H12V4.5a.5.5,0,0,0-.5-.5h-5a.5.5,0,0,0-.5.5V6H2.908a1.5,1.5,0,1,0,0,1H5.8C.089,8.949,0,15.921,0,16H1c0-.3.082-6.263,5-8.007V9.5a.5.5,0,0,0,.5.5h4.837l.005.012,5.646,5.646a.25.25,0,0,0,.354,0l.353-.353A.25.25,0,0,0,17.7,14.951ZM11,9H7V5h4Z" />
    </symbol>

    <symbol id="anchor-disconnected" viewBox="0 0 18 18">
        <path
            d="M16.5,13a1.483,1.483,0,0,0-.628.142L12,9.27V4.5a.5.5,0,0,0-.5-.5h-5a.5.5,0,0,0-.5.5V6H2.908a1.5,1.5,0,1,0,0,1H5.8C.089,8.949,0,15.921,0,16H1c0-.3.082-6.263,5-8.007V9.5a.5.5,0,0,0,.5.5h4.83l3.833,3.833A1.483,1.483,0,0,0,15,14.5,1.5,1.5,0,1,0,16.5,13ZM11,9H7V5h4Z" />
    </symbol>

    <symbol id="unknown" viewBox="0 0 18 18">
        <path
            d="M15,3V15H3V3H15m.5-1H2.5a.5.5,0,0,0-.5.5v13a.5.5,0,0,0,.5.5h13a.5.5,0,0,0,.5-.5V2.5a.5.5,0,0,0-.5-.5Z" />
        <path
            d="M7.962,10.383a1.844,1.844,0,0,1,.032-.761,2.311,2.311,0,0,1,.275-.634,3.574,3.574,0,0,1,.413-.536c.153-.165.3-.326.437-.484A3.257,3.257,0,0,0,9.463,7.5a.955.955,0,0,0,.137-.5.877.877,0,0,0-.268-.669,1.044,1.044,0,0,0-.744-.254,1.5,1.5,0,0,0-.7.162,2.356,2.356,0,0,0-.588.438L6.5,6a3.444,3.444,0,0,1,.981-.721A2.851,2.851,0,0,1,8.763,5a3.168,3.168,0,0,1,.9.121,1.973,1.973,0,0,1,.707.363,1.71,1.71,0,0,1,.462.6A1.921,1.921,0,0,1,11,6.914a1.5,1.5,0,0,1-.143.662,3.015,3.015,0,0,1-.356.559,6.079,6.079,0,0,1-.457.507,4.317,4.317,0,0,0-.438.508,2.54,2.54,0,0,0-.312.565,1.3,1.3,0,0,0-.069.668Z" />
        <path d="M8.745,13a.75.75,0,1,1,0-1.5.74.74,0,0,1,.538.212.775.775,0,0,1,0,1.076A.74.74,0,0,1,8.745,13Z" />
    </symbol>

    <symbol id="layer" viewBox="0 0 18 18">
        <path
            d="M15.5,2H2.5a.5.5,0,0,0-.5.5v13a.5.5,0,0,0,.5.5h13a.5.5,0,0,0,.5-.5V2.5A.5.5,0,0,0,15.5,2ZM15,6H12V9h3v3H12v3H9V12H6v3H3V12H6V9H3V6H6V3H9V6h3V3h3Z" />
        <rect x="6" y="6" width="3" height="3" />
        <rect x="9" y="9" width="3" height="3" />
    </symbol>

    <symbol id="layer3D" viewBox="0 0 18 18">
        <path
            d="M16,5,9,1,2,5v8l6,3.429V16.5h.125L9,17l.875-.5H10v-.071L16,13Zm-3.069.549-3.948,2.3L4.92,5.635,9,3.3ZM4,11.839V7.412L8,9.594v4.531Zm6,2.286V9.575l4-2.334v4.6Z" />
    </symbol>

    <symbol id="easing" viewBox="0 0 18 18">
        <path
            d="M16,2V16H2V2H16m.5-1H1.5a.5.5,0,0,0-.5.5v15a.5.5,0,0,0,.5.5h15a.5.5,0,0,0,.5-.5V1.5a.5.5,0,0,0-.5-.5Z" />
        <path
            d="M3.5,14.625A.625.625,0,0,1,2.875,14V13A5.131,5.131,0,0,1,8,7.875h2A3.879,3.879,0,0,0,13.875,4a.625.625,0,0,1,1.25,0A5.131,5.131,0,0,1,10,9.125H8A3.879,3.879,0,0,0,4.125,13v1A.625.625,0,0,1,3.5,14.625Z" />
    </symbol>

    <symbol id="easing-alt" viewBox="0 0 18 18">
        <path
            d="M16.5,1H1.5a.5.5,0,0,0-.5.5v15a.5.5,0,0,0,.5.5h15a.5.5,0,0,0,.5-.5V1.5A.5.5,0,0,0,16.5,1ZM10,9.125H8A3.879,3.879,0,0,0,4.125,13v1a.625.625,0,0,1-1.25,0V13A5.131,5.131,0,0,1,8,7.875h2A3.879,3.879,0,0,0,13.875,4a.625.625,0,0,1,1.25,0A5.131,5.131,0,0,1,10,9.125Z" />
    </symbol>

    <symbol id="clip-path" viewBox="0 0 18 18">
        <path
            d="M11.5,1H1.5a.5.5,0,0,0-.5.5v10a.5.5,0,0,0,.5.5h10a.5.5,0,0,0,.5-.5V1.5A.5.5,0,0,0,11.5,1Zm-5,5a.5.5,0,0,0-.5.5V11H2V2h9V6Z" />
        <rect x="13" y="6" width="1" height="1" />
        <rect x="13" y="16" width="1" height="1" />
        <rect x="11" y="16" width="1" height="1" />
        <rect x="9" y="16" width="1" height="1" />
        <rect x="16" y="9" width="1" height="1" />
        <rect x="16" y="11" width="1" height="1" />
        <rect x="16" y="13" width="1" height="1" />
        <rect x="6" y="13" width="1" height="1" />
        <path d="M15,6V7h1V8h1V6.5a.5.5,0,0,0-.5-.5Z" />
        <path d="M15,17V16h1V15h1v1.5a.5.5,0,0,1-.5.5Z" />
        <path d="M8,17V16H7V15H6v1.5a.5.5,0,0,0,.5.5Z" />
    </symbol>

    <symbol id="symbol" viewBox="0 0 18 18">
        <path d="M4.5,1h0A3.5,3.5,0,0,1,8,4.5V8A0,0,0,0,1,8,8H4.5A3.5,3.5,0,0,1,1,4.5v0A3.5,3.5,0,0,1,4.5,1Z" />
        <path d="M13.5,1h0A3.5,3.5,0,0,1,17,4.5v0A3.5,3.5,0,0,1,13.5,8H10a0,0,0,0,1,0,0V4.5A3.5,3.5,0,0,1,13.5,1Z" />
        <path d="M4.5,10H8a0,0,0,0,1,0,0v3.5A3.5,3.5,0,0,1,4.5,17h0A3.5,3.5,0,0,1,1,13.5v0A3.5,3.5,0,0,1,4.5,10Z" />
        <path
            d="M10,10h3.5A3.5,3.5,0,0,1,17,13.5v0A3.5,3.5,0,0,1,13.5,17h0A3.5,3.5,0,0,1,10,13.5V10A0,0,0,0,1,10,10Z" />
    </symbol>

    <symbol id="center-origin-object" viewBox="0 0 18 18">
        <path d="M2,2H5V1H1.5a.5.5,0,0,0-.5.5V5H2Z" />
        <path d="M2,13H1v3.5a.5.5,0,0,0,.5.5H5V16H2Z" />
        <path d="M16.5,1H13V2h3V5h1V1.5A.5.5,0,0,0,16.5,1Z" />
        <path d="M16,16H13v1h3.5a.5.5,0,0,0,.5-.5V13H16Z" />
        <circle cx="9" cy="9" r="1.125" />
        <path d="M9,6A3,3,0,1,1,6,9,3,3,0,0,1,9,6M9,4.75A4.25,4.25,0,1,0,13.25,9,4.25,4.25,0,0,0,9,4.75Z" />
    </symbol>

    <symbol id="center-object-origin" viewBox="0 0 18 18">
        <circle cx="9" cy="9" r="1.125" />
        <path d="M9,6A3,3,0,1,1,6,9,3,3,0,0,1,9,6M9,4.75A4.25,4.25,0,1,0,13.25,9,4.25,4.25,0,0,0,9,4.75Z" />
        <path
            d="M4.75,1h-.5A.25.25,0,0,0,4,1.25V4H1.25A.25.25,0,0,0,1,4.25v.5A.25.25,0,0,0,1.25,5H5V1.25A.25.25,0,0,0,4.75,1Z" />
        <path
            d="M13.25,1h.5a.25.25,0,0,1,.25.25V4h2.75a.25.25,0,0,1,.25.25v.5a.25.25,0,0,1-.25.25H13V1.25A.25.25,0,0,1,13.25,1Z" />
        <path
            d="M4.75,17h-.5A.25.25,0,0,1,4,16.75V14H1.25A.25.25,0,0,1,1,13.75v-.5A.25.25,0,0,1,1.25,13H5v3.75A.25.25,0,0,1,4.75,17Z" />
        <path
            d="M13.25,17h.5a.25.25,0,0,0,.25-.25V14h2.75a.25.25,0,0,0,.25-.25v-.5a.25.25,0,0,0-.25-.25H13v3.75A.25.25,0,0,0,13.25,17Z" />
    </symbol>

    <symbol id="swap-arrow-up-left" viewBox="0 0 18 18">
        <path
            d="M13.5,14.875A7.384,7.384,0,0,1,6.125,7.5V6H9.182a.25.25,0,0,0,.166-.437L5.836,2.17a.252.252,0,0,0-.351,0l-3.4,3.39A.25.25,0,0,0,2.25,6H4.875V7.5A8.635,8.635,0,0,0,13.5,16.125H16v-1.25Z" />
    </symbol>

    <symbol id="swap-arrow-down-right" viewBox="0 0 18 18">
        <path
            d="M3.238,4.5a7.383,7.383,0,0,0,7.375,7.375h1.5V8.818a.247.247,0,0,1,.084-.187.25.25,0,0,1,.353.021l3.392,3.512a.25.25,0,0,1,0,.351l-3.389,3.4a.254.254,0,0,1-.188.084.249.249,0,0,1-.249-.25V13.125h-1.5A8.635,8.635,0,0,1,1.988,4.5V2h1.25Z" />
    </symbol>

    <symbol id="swap-arrows" viewBox="0 0 18 18">
        <path
            d="M16.937,12.084A.252.252,0,0,0,16.75,12H14.125V8.5A3.629,3.629,0,0,0,10.5,4.875H6V2.25a.25.25,0,0,0-.437-.166L2.17,5.6a.251.251,0,0,0,0,.35l3.39,3.4A.25.25,0,0,0,6,9.182V6.125h4.5A2.377,2.377,0,0,1,12.875,8.5V12H9.818a.25.25,0,0,0-.166.437l3.4,3.39a.251.251,0,0,0,.35,0l3.513-3.393A.25.25,0,0,0,16.937,12.084Z" />
    </symbol>

    <symbol id="percent" viewBox="0 0 18 18">
        <path
            d="M5,3A2,2,0,0,1,7,5V6A2,2,0,0,1,3,6V5A2,2,0,0,1,5,3M5,2A3,3,0,0,0,2,5V6A3,3,0,0,0,8,6V5A3,3,0,0,0,5,2Z" />
        <path
            d="M13,10a2,2,0,0,1,2,2v1a2,2,0,0,1-4,0V12a2,2,0,0,1,2-2m0-1a3,3,0,0,0-3,3v1a3,3,0,0,0,6,0V12a3,3,0,0,0-3-3Z" />
        <path d="M3,15.5a.5.5,0,0,1-.354-.854l12-12a.5.5,0,0,1,.708.708l-12,12A.5.5,0,0,1,3,15.5Z" />
    </symbol>

</svg>