<svg xmlns="http://www.w3.org/2000/svg" style="height: 0; width: 0; position: absolute; visibility: hidden;">
    <symbol id="FolderOpen" viewBox="0 0 18 18">
        <path d="M15,7V4.5a.5.5,0,0,0-.5-.5l-6.166.004-1.65-1.7A1,1,0,0,0,5.9645,2H2A1,1,0,0,0,1,3V14.5a.5.5,0,0,0,.5.5H14.6535a.5.5,0,0,0,.468-.3245l2.625-7A.5.5,0,0,0,17.2785,7ZM2,3H5.9645L7.617,4.7l.295.3035h.4225L14,5V7H4.3465a.5.5,0,0,0-.468.3245L2,12.3335Z"/>
    </symbol>
    <symbol id="Folder" viewBox="0 0 18 18">
        <path d="M16.5,4l-7.166.004-1.65-1.7A1,1,0,0,0,6.9645,2H2A1,1,0,0,0,1,3V14.5a.5.5,0,0,0,.5.5h15a.5.5,0,0,0,.5-.5V4.5A.5.5,0,0,0,16.5,4ZM2,3H6.9645L8.908,5H2Z" />
    </symbol>
    <symbol id="SaveFloppy" viewBox="0 0 18 18">
        <path d="M15.854,4.1465s-2.0075-2-2.073-2.057A.48449.48449,0,0,0,13.5,2H13V6H7V2H2.5a.5.5,0,0,0-.5.5v13a.5.5,0,0,0,.5.5h13a.5.5,0,0,0,.5-.5V4.5A.5.5,0,0,0,15.854,4.1465ZM13,15H5V8h8Z"/>
    </symbol>
    <symbol id="Undo" viewBox="0 0 18 18">
        <path d="M15.3315,6.271A5.19551,5.19551,0,0,0,11.8355,5H5.5V2.4A.4.4,0,0,0,5.1,2a.39352.39352,0,0,0-.2635.1L1.072,5.8245a.25.25,0,0,0,0,.35L4.834,9.9a.39352.39352,0,0,0,.2635.1.4.4,0,0,0,.4-.4V7h6.441A3.06949,3.06949,0,0,1,15.05,9.9a2.9445,2.9445,0,0,1-2.78274,3.09783Q12.13375,13.005,12,13H8.5a.5.5,0,0,0-.5.5v1a.5.5,0,0,0,.5.5h3.263a5.16751,5.16751,0,0,0,5.213-4.5065A4.97351,4.97351,0,0,0,15.3315,6.271Z"/>
    </symbol>
    <symbol id="Redo" viewBox="0 0 18 18">
        <path d="M2.6685,6.271A5.19551,5.19551,0,0,1,6.1645,5H12.5V2.4a.4.4,0,0,1,.4-.4.39352.39352,0,0,1,.2635.1l3.762,3.7225a.25.25,0,0,1,0,.35L13.166,9.9a.39352.39352,0,0,1-.2635.1.4.4,0,0,1-.4-.4V7H6.0615A3.06949,3.06949,0,0,0,2.95,9.9a2.9445,2.9445,0,0,0,2.78274,3.09783Q5.86626,13.005,6,13H9.5a.5.5,0,0,1,.5.5v1a.5.5,0,0,1-.5.5H6.237a5.16751,5.16751,0,0,1-5.213-4.5065A4.97349,4.97349,0,0,1,2.6685,6.271Z"/>
    </symbol>
    <symbol id="AlignLeft" viewBox="0 0 18 18">
        <rect height="18" rx="0.25" width="1" x="1" />
        <rect height="5" rx="0.5" width="13" x="3" y="10" />
        <rect height="5" rx="0.5" width="8" x="3" y="3" />
    </symbol>
    <symbol id="AlignCenter" viewBox="0 0 18 18">
        <path d="M14.5,10H9V8h3.5a.5.5,0,0,0,.5-.5v-4a.5.5,0,0,0-.5-.5H9V.25A.25.25,0,0,0,8.75,0h-.5A.25.25,0,0,0,8,.25V3H4.5a.5.5,0,0,0-.5.5v4a.5.5,0,0,0,.5.5H8v2H2.5a.5.5,0,0,0-.5.5v4a.5.5,0,0,0,.5.5H8v2.75a.25.25,0,0,0,.25.25h.5A.25.25,0,0,0,9,17.75V15h5.5a.5.5,0,0,0,.5-.5v-4A.5.5,0,0,0,14.5,10Z" />
    </symbol>
    <symbol id="AlignRight" viewBox="0 0 18 18">
        <rect height="18" rx="0.25" width="1" x="16" />
        <rect height="5" rx="0.5" width="13" x="2" y="10" />
        <rect height="5" rx="0.5" width="8" x="7" y="3" />
    </symbol>
    <symbol id="AlignTop" viewBox="0 0 18 18">
        <rect height="1" rx="0.25" width="18" y="1" />
        <rect height="13" rx="0.5" width="5" x="3" y="3" />
        <rect height="8" rx="0.5" width="5" x="10" y="3" />
    </symbol>
    <symbol id="AlignMiddle" viewBox="0 0 18 18">
        <path d="M17.75,8H15V4.5a.5.5,0,0,0-.5-.5h-4a.5.5,0,0,0-.5.5V8H8V2.5A.5.5,0,0,0,7.5,2h-4a.5.5,0,0,0-.5.5V8H.25A.25.25,0,0,0,0,8.25v.5A.25.25,0,0,0,.25,9H3v5.5a.5.5,0,0,0,.5.5h4a.5.5,0,0,0,.5-.5V9h2v3.5a.5.5,0,0,0,.5.5h4a.5.5,0,0,0,.5-.5V9h2.75A.25.25,0,0,0,18,8.75v-.5A.25.25,0,0,0,17.75,8Z" />
    </symbol>
    <symbol id="AlignBottom" viewBox="0 0 18 18">
        <rect height="13" rx="0.5" width="5" x="3" y="2" />
        <rect height="8" rx="0.5" width="5" x="10" y="7" />
        <rect height="1" rx="0.25" width="18" y="16" />
    </symbol>
    <symbol id="DistributeHorizontally" viewBox="0 0 18 18">
        <rect height="12" rx="0.5" width="6" x="6" y="3" />
        <rect height="18" rx="0.25" width="1" x="2" />
        <rect height="18" rx="0.25" width="1" x="15" />
    </symbol>
    <symbol id="DistributeVertically" viewBox="0 0 18 18">
        <rect height="6" rx="0.5" width="12" x="3" y="6" />
        <rect height="1" rx="0.25" width="18" y="15" />
        <rect height="1" rx="0.25" width="18" y="2" />
    </symbol>
    <symbol id="ChevronRight" viewBox="0 0 18 18">
        <path d="M12,9a.994.994,0,0,1-.2925.7045l-3.9915,3.99a1,1,0,1,1-1.4355-1.386l.0245-.0245L9.5905,9,6.3045,5.715A1,1,0,0,1,7.691,4.28l.0245.0245,3.9915,3.99A.994.994,0,0,1,12,9Z" />
    </symbol>
    <symbol id="ChevronDown" viewBox="0 0 18 18">
        <path d="M4,7.01a1,1,0,0,1,1.7055-.7055l3.289,3.286,3.289-3.286a1,1,0,0,1,1.437,1.3865l-.0245.0245L9.7,11.7075a1,1,0,0,1-1.4125,0L4.293,7.716A.9945.9945,0,0,1,4,7.01Z" />
    </symbol>
    <symbol id="Refresh" viewBox="0 0 18 18">
        <path d="M16.337,10H15.39a.6075.6075,0,0,0-.581.469A5.7235,5.7235,0,0,1,5.25,13.006l-.346-.3465L6.8815,10.682A.392.392,0,0,0,7,10.4a.4.4,0,0,0-.377-.4H1.25a.25.25,0,0,0-.25.25v5.375A.4.4,0,0,0,1.4,16a.3905.3905,0,0,0,.28-.118l1.8085-1.8085.178.1785a8.09048,8.09048,0,0,0,3.642,2.1655,7.715,7.715,0,0,0,9.4379-5.47434q.04733-.178.0861-.35816A.5.5,0,0,0,16.337,10Z" />
        <path d="M16.6,2a.3905.3905,0,0,0-.28.118L14.5095,3.9265l-.178-.1765a8.09048,8.09048,0,0,0-3.642-2.1655A7.715,7.715,0,0,0,1.25269,7.06072q-.04677.17612-.08519.35428A.5.5,0,0,0,1.663,8H2.61a.6075.6075,0,0,0,.581-.469A5.7235,5.7235,0,0,1,12.75,4.994l.346.3465L11.1185,7.318A.392.392,0,0,0,11,7.6a.4.4,0,0,0,.377.4H16.75A.25.25,0,0,0,17,7.75V2.377A.4.4,0,0,0,16.6,2Z" />
    </symbol>

    <symbol id="LockClosed" viewBox="0 0 18 18">
        <path d="M14.5,8H14V7A5,5,0,0,0,4,7V8H3.5a.5.5,0,0,0-.5.5v8a.5.5,0,0,0,.5.5h11a.5.5,0,0,0,.5-.5v-8A.5.5,0,0,0,14.5,8ZM6,7a3,3,0,0,1,6,0V8H6Zm4,6.111V14.5a.5.5,0,0,1-.5.5h-1a.5.5,0,0,1-.5-.5V13.111a1.5,1.5,0,1,1,2,0Z" />
    </symbol>

    <symbol id="LockOpen" viewBox="0 0 18 18">
        <path d="M14.5,8H5.95V5.1765A3.1065,3.1065,0,0,1,8.9852,2.0003L9,2a3.0715,3.0715,0,0,1,2.754,1.7095c.155.3195.133.573.3885.573a.2541.2541,0,0,0,.093-.018L13.576,3.73a.25649.25649,0,0,0,.161-.2355A4.96,4.96,0,0,0,9,.05,5.16306,5.16306,0,0,0,4,5.146V8H3.5a.5.5,0,0,0-.5.5v8a.5.5,0,0,0,.5.5h11a.5.5,0,0,0,.5-.5v-8A.5.5,0,0,0,14.5,8ZM10,13.111V14.5a.5.5,0,0,1-.5.5h-1a.5.5,0,0,1-.5-.5V13.111a1.5,1.5,0,1,1,2,0Z" />
    </symbol>

    <symbol id="Visibility" viewBox="0 0 18 18">
        <path d="M12.3065,4.29A7.48591,7.48591,0,0,0,9,3.4685c-4.332,0-7.875,4.3125-7.875,5.7115,0,1.5,3.729,5.35,7.843,5.35,4.15,0,7.907-3.853,7.907-5.35C16.875,8,14.768,5.5095,12.3065,4.29ZM9,13.6125A4.6125,4.6125,0,1,1,13.6125,9,4.6125,4.6125,0,0,1,9,13.6125Z" />
        <path d="M10.3335,9.0415A1.3335,1.3335,0,0,1,9,7.7085a1.316,1.316,0,0,1,.675-1.135A2.46964,2.46964,0,0,0,9,6.469a2.5315,2.5315,0,1,0,2.5315,2.5315V9a2.35682,2.35682,0,0,0-.0875-.6A1.3125,1.3125,0,0,1,10.3335,9.0415Z" />
    </symbol>

    <symbol id="VisibilityOff" viewBox="0 0 18 18">
        <path d="M7.2865,4.72A4.6075,4.6075,0,0,1,13.28,10.7135l1.4725,1.4725C16.05,11.0915,16.875,9.88,16.875,9.18c0-1.182-2.107-3.6705-4.5685-4.89A7.48591,7.48591,0,0,0,9,3.4685a7.18,7.18,0,0,0-2.4945.4705Z" />
        <path d="M16.897,16.029l-5.733-5.733A2.511,2.511,0,0,0,11.531,9a2.35608,2.35608,0,0,0-.087-.6,1.31249,1.31249,0,0,1-1.1105.639A1.3335,1.3335,0,0,1,9,7.7085a1.316,1.316,0,0,1,.675-1.135A2.47276,2.47276,0,0,0,9,6.469a2.511,2.511,0,0,0-1.296.367L1.971,1.103a.40949.40949,0,0,0-.5785,0l-.289.2895a.4085.4085,0,0,0-.00079.57771L1.1035,1.971l3.173,3.173c-1.908,1.37-3.15,3.209-3.15,4.036,0,1.5,3.729,5.35,7.843,5.35a8.2275,8.2275,0,0,0,3.722-.974l3.3395,3.3395a.40851.40851,0,0,0,.57771.0008l.00079-.0008.289-.289A.409.409,0,0,0,16.897,16.029ZM9,13.6125A4.6,4.6,0,0,1,5.3395,6.207l1.497,1.497A2.50409,2.50409,0,0,0,6.469,9a2.531,2.531,0,0,0,2.5305,2.5315H9a2.50447,2.50447,0,0,0,1.296-.368l1.497,1.497A4.572,4.572,0,0,1,9,13.6125Z" />
    </symbol>

    <symbol id="AddToSelection" viewBox="0 0 18 18">
        <path d="M12.08,2.7215l.514-.8885a7.97354,7.97354,0,0,0-2.7-.803V2.063A6.94168,6.94168,0,0,1,12.08,2.7215Z" />
        <path d="M14.765,5.033l.9-.5175a8.06649,8.06649,0,0,0-1.926-1.985l-.519.894A7.03319,7.03319,0,0,1,14.765,5.033Z" />
        <path d="M15.9665,8.3315H17a7.95519,7.95519,0,0,0-.6895-2.6455L15.415,6.2A6.95,6.95,0,0,1,15.9665,8.3315Z" />
        <path d="M15.9665,9.6685a6.95,6.95,0,0,1-.55,2.129l.8955.516A7.95513,7.95513,0,0,0,17,9.6685Z" />
        <path d="M13.22,14.5755l.5165.894a8.06544,8.06544,0,0,0,1.926-1.985l-.9-.5175A7.033,7.033,0,0,1,13.22,14.5755Z" />
        <path d="M9.8925,15.937V16.97a7.97354,7.97354,0,0,0,2.7-.803l-.5125-.8885A6.94146,6.94146,0,0,1,9.8925,15.937Z" />
        <path d="M6.269,15.447l-.514.8885A7.99637,7.99637,0,0,0,8.5535,17V15.9775A6.96845,6.96845,0,0,1,6.269,15.447Z" />
        <path d="M3.3695,13.1465l-.9.5175a8.06609,8.06609,0,0,0,2.107,2.031l.513-.8875A7.03548,7.03548,0,0,1,3.3695,13.1465Z" />
        <path d="M2.0335,9.6685H1a7.94984,7.94984,0,0,0,.787,2.847L2.6825,12A6.94449,6.94449,0,0,1,2.0335,9.6685Z" />
        <path d="M2.6825,6,1.787,5.4845A7.94984,7.94984,0,0,0,1,8.3315H2.0335A6.94449,6.94449,0,0,1,2.6825,6Z" />
        <path d="M5.092,3.192l-.513-.8875a8.06609,8.06609,0,0,0-2.107,2.031l.9.5175A7.03639,7.03639,0,0,1,5.092,3.192Z" />
        <path d="M8.5535,2.0225V1a7.99514,7.99514,0,0,0-2.8.6645l.5135.8885A6.96854,6.96854,0,0,1,8.5535,2.0225Z" />
        <path d="M14,9.5a.5.5,0,0,1-.5.5H10v3.5a.5.5,0,0,1-.5.5h-1a.5.5,0,0,1-.5-.5V10H4.5A.5.5,0,0,1,4,9.5v-1A.5.5,0,0,1,4.5,8H8V4.5A.5.5,0,0,1,8.5,4h1a.5.5,0,0,1,.5.5V8h3.5a.5.5,0,0,1,.5.5Z" />
    </symbol>
    <symbol id="AddCircle" viewBox="0 0 18 18">
        <path d="M9,1a8,8,0,1,0,8,8A8,8,0,0,0,9,1Zm5,8.5a.5.5,0,0,1-.5.5H10v3.5a.5.5,0,0,1-.5.5h-1a.5.5,0,0,1-.5-.5V10H4.5A.5.5,0,0,1,4,9.5v-1A.5.5,0,0,1,4.5,8H8V4.5A.5.5,0,0,1,8.5,4h1a.5.5,0,0,1,.5.5V8h3.5a.5.5,0,0,1,.5.5Z" />
    </symbol>
    <symbol id="Filter" viewBox="0 0 18 18">
        <path d="M15.473,1H1.527a.5.5,0,0,0-.3935.8085L7,9.2945V16.95a.496.496,0,0,0,.84.412l1.9905-2.0765A.60949.60949,0,0,0,10,14.864V9.2945l5.8665-7.486A.5.5,0,0,0,15.473,1Z" />
    </symbol>
    <symbol id="FilterCheck" viewBox="0 0 18 18">
        <path d="M7.4,13.5A6.573,6.573,0,0,1,9,9.2945c1.0415-1.347,5.8665-7.486,5.8665-7.486A.5.5,0,0,0,14.473,1H.527a.5.5,0,0,0-.3935.8085L6,9.2945V16.95a.496.496,0,0,0,.84.4125L8.009,16.143A6.06548,6.06548,0,0,1,7.4,13.5Z" />
        <path d="M13.5,9.05a4.45,4.45,0,1,0,4.45,4.45A4.45,4.45,0,0,0,13.5,9.05Zm-1.169,7.156-2.064-2.0635a.25.25,0,0,1,0-.3535l.518-.518a.25.25,0,0,1,.3535,0l1.3655,1.3655,3.053-3.053a.25.25,0,0,1,.3535,0l.5215.5215a.25.25,0,0,1,0,.3535l-3.75,3.75A.25.25,0,0,1,12.331,16.206Z" />
    </symbol>
    <symbol id="More" viewBox="0 0 18 18">
        <circle cx="8.9" cy="9.1" r="1.7" />
        <circle cx="14.75" cy="9.1" r="1.7" />
        <circle cx="3.05" cy="9.1" r="1.7" />
    </symbol>
    <symbol id="Settings" viewBox="0 0 18 18">
        <path d="M16.45,7.8965H14.8945a5.97644,5.97644,0,0,0-.921-2.2535L15.076,4.54a.55.55,0,0,0,.00219-.77781L15.076,3.76l-.8365-.836a.55.55,0,0,0-.77781-.00219L13.4595,2.924,12.357,4.0265a5.96235,5.96235,0,0,0-2.2535-.9205V1.55a.55.55,0,0,0-.55-.55H8.45a.55.55,0,0,0-.55.55V3.106a5.96235,5.96235,0,0,0-2.2535.9205l-1.1-1.1025a.55.55,0,0,0-.77781-.00219L3.7665,2.924,2.924,3.76a.55.55,0,0,0-.00219.77781L2.924,4.54,4.0265,5.643a5.97644,5.97644,0,0,0-.921,2.2535H1.55a.55.55,0,0,0-.55.55V9.55a.55.55,0,0,0,.55.55H3.1055a5.967,5.967,0,0,0,.921,2.2535L2.924,13.4595a.55.55,0,0,0-.00219.77782l.00219.00218.8365.8365a.55.55,0,0,0,.77781.00219L4.5405,15.076,5.643,13.9735a5.96235,5.96235,0,0,0,2.2535.9205V16.45a.55.55,0,0,0,.55.55H9.55a.55.55,0,0,0,.55-.55V14.894a5.96235,5.96235,0,0,0,2.2535-.9205L13.456,15.076a.55.55,0,0,0,.77782.00219L14.236,15.076l.8365-.8365a.55.55,0,0,0,.00219-.77781l-.00219-.00219L13.97,12.357a5.967,5.967,0,0,0,.921-2.2535H16.45a.55.55,0,0,0,.55-.55V8.45a.55.55,0,0,0-.54649-.55349ZM11.207,9A2.207,2.207,0,1,1,9,6.793H9A2.207,2.207,0,0,1,11.207,9Z" />
    </symbol>
    <symbol id="Delete" viewBox="0 0 18 18">
        <path d="M15.75,3H12V2a1,1,0,0,0-1-1H6A1,1,0,0,0,5,2V3H1.25A.25.25,0,0,0,1,3.25v.5A.25.25,0,0,0,1.25,4h1L3.4565,16.55a.5.5,0,0,0,.5.45H13.046a.5.5,0,0,0,.5-.45L14.75,4h1A.25.25,0,0,0,16,3.75v-.5A.25.25,0,0,0,15.75,3ZM5.5325,14.5a.5.5,0,0,1-.53245-.46529L5,14.034l-.5355-8a.50112.50112,0,0,1,1-.067l.5355,8a.5.5,0,0,1-.46486.53283ZM9,14a.5.5,0,0,1-1,0V6A.5.5,0,0,1,9,6ZM11,3H6V2h5Zm1,11.034a.50112.50112,0,0,1-1-.067l.5355-8a.50112.50112,0,1,1,1,.067Z" />
    </symbol>
    <symbol id="Graphic" viewBox="0 0 18 18">
        <path d="M16.5,7H12V.6925a.241.241,0,0,0-.23183-.24983L11.7595.4425H11.75a.247.247,0,0,0-.175.0735L.5455,11.573A.25.25,0,0,0,.7225,12h4.419a3.98211,3.98211,0,0,0,7.3035,3H16.5a.5.5,0,0,0,.5-.5v-7A.5.5,0,0,0,16.5,7ZM2.414,11,11,2.414V7H9.5a.5.5,0,0,0-.5.5V9a3.98351,3.98351,0,0,0-3.4455,2ZM9,16a3,3,0,1,1,3-3A3,3,0,0,1,9,16Z" />
    </symbol>
    <symbol id="ColorPalette" viewBox="0 0 18 18">
        <path d="M11.807,3.0725c-2.1855-.35-4.503,0-4.824,1.046a1.146,1.146,0,0,0,.647,1.454A1.549,1.549,0,0,1,8.1995,7.843a1.41449,1.41449,0,0,1-1.5625.563C4.763,7.9325,2.6905,6.965.9945,8.5785-.55,10.05.079,12.233,1.577,13.421a11.7,11.7,0,0,0,7.2565,2.637c4.793,0,9.0665-2.8255,9.0665-6.558C17.9,5.721,14.316,3.4715,11.807,3.0725Zm-7.46,10.654a1.9,1.9,0,1,1,1.9-1.9A1.9,1.9,0,0,1,4.347,13.7265Zm9.643-8.017a1.25,1.25,0,1,1-1.25,1.25A1.25,1.25,0,0,1,13.99,5.7095Zm-5.351,9.07a1.7805,1.7805,0,1,1,1.7795-1.7825V13A1.78,1.78,0,0,1,8.639,14.7795Zm3.895-.748a1.5035,1.5035,0,1,1,1.501-1.507v.005A1.50249,1.50249,0,0,1,12.534,14.0315ZM15,11.28a1.3375,1.3375,0,1,1,1.337-1.338v.0005A1.337,1.337,0,0,1,15.0005,11.28Z" />
    </symbol>
    <symbol id="Effects" viewBox="0 0 18 18">
        <path d="M17.267,6h-1.65c-.1,0-.1215.039-.1815.118L12.1,9.4265V9.404L10.7185,6.0785C10.698,6.0195,10.678,6,10.5975,6H6.018l.31-1.344c.585-2.6475,1.8-3.1155,2.7605-3.1155a8.96952,8.96952,0,0,1,1.5.375c.0695.023.1165-.023.14-.114l.304-1.324C11.056.409,11.0095.341,10.939.295A7.98216,7.98216,0,0,0,9.1165.0405C6.847.0405,5.209,1.324,4.437,4.7705L4.127,6H1.8695a.1275.1275,0,0,0-.14081.11263L1.7285,6.1145l-.468,1.25-.0065.045c.007.009.038,0,.1.0915H3.5805C3.37,8.527,1.2595,16.35.7685,17.7415c-.047.114,0,.1825.093.1825.1875-.0225,1.267.069,1.8285,0,.1165-.0225.1635-.0455.187-.1595C3.368,16.2805,4.6605,11.791,5.5725,7.5h2.391c.05,0,1.019-.0125,1.55-.063l1.41,2.8115c-1.2295,1.35-2.764,3.2255-4.034,4.6145A.076.076,0,0,0,6.93,15H8.6605c.1,0,2.444-2.7755,3.17-3.695H11.85S13.862,15,13.943,15h1.632c.0805,0,.121-.059.0805-.137-.443-.939-1.929-3.3625-2.4935-4.5365,1.1285-1.213,3.2-3.1135,4.1655-4.1895C17.3885,6.0785,17.368,6,17.267,6Z" />
    </symbol>
    <symbol id="FlipHorizontal" viewBox="0 0 18 18">
        <rect height="1" rx="0.25" width="1" x="8" y="1" />
        <rect height="1" rx="0.25" width="1" x="8" y="3" />
        <rect height="1" rx="0.25" width="1" x="8" y="5" />
        <rect height="1" rx="0.25" width="1" x="8" y="7" />
        <rect height="1" rx="0.25" width="1" x="8" y="9" />
        <rect height="1" rx="0.25" width="1" x="8" y="11" />
        <rect height="1" rx="0.25" width="1" x="8" y="13" />
        <rect height="1" rx="0.25" width="1" x="8" y="15" />
        <path d="M15.138,14.35,10.1,8.9a.505.505,0,0,1,0-.714L15.138,2.65A.505.505,0,0,1,16,3.006V13.994a.505.505,0,0,1-.862.356Z" />
        <path d="M1.9225,4.0395,6.0065,8.461,1.9225,12.95ZM1.522,2.5a.5045.5045,0,0,0-.50849.50048V13.994a.5045.5045,0,0,0,.503.506l.006,0a.4935.4935,0,0,0,.353-.15l5.036-5.5335a.505.505,0,0,0,0-.714L1.8755,2.65A.49451.49451,0,0,0,1.522,2.5Z" />
    </symbol>
    <symbol id="FlipVertical" viewBox="0 0 18 18">
        <rect height="1" rx="0.25" width="1" x="1" y="8" />
        <rect height="1" rx="0.25" width="1" x="3" y="8" />
        <rect height="1" rx="0.25" width="1" x="5" y="8" />
        <rect height="1" rx="0.25" width="1" x="7" y="8" />
        <rect height="1" rx="0.25" width="1" x="9" y="8" />
        <rect height="1" rx="0.25" width="1" x="11" y="8" />
        <rect height="1" rx="0.25" width="1" x="13" y="8" />
        <rect height="1" rx="0.25" width="1" x="15" y="8" />
        <path d="M2.65,15.1245l5.45-5.036a.505.505,0,0,1,.714,0l5.536,5.036a.505.505,0,0,1-.357.862H3.006a.505.505,0,0,1-.356-.862Z" />
        <path d="M12.9605,1.909,8.539,5.993,4.05,1.909ZM14.5,1.5085A.5045.5045,0,0,0,13.99952,1H3.006a.5045.5045,0,0,0-.506.503l0,.006a.4935.4935,0,0,0,.15.353L8.1835,6.9a.505.505,0,0,0,.714,0L14.35,1.862A.49451.49451,0,0,0,14.5,1.5085Z" />
    </symbol>

    <symbol id="AddTo" viewBox="0 0 18 18">
        <path d="M12,6V2.5a.5.5,0,0,0-.5-.5h-9a.5.5,0,0,0-.5.5v9a.5.5,0,0,0,.5.5H6v3.5a.5.5,0,0,0,.5.5h9a.5.5,0,0,0,.5-.5v-9a.5.5,0,0,0-.5-.5Z" />
    </symbol>

    <symbol id="SubtractFrontPath" viewBox="0 0 18 18">
        <path d="M15.5,6H12V2.5a.5.5,0,0,0-.5-.5h-9a.5.5,0,0,0-.5.5v9a.5.5,0,0,0,.5.5H6v3.5a.5.5,0,0,0,.5.5h9a.5.5,0,0,0,.5-.5v-9A.5.5,0,0,0,15.5,6ZM15,15H7V7h8Z" />
    </symbol>

    <symbol id="SubtractBackPath" viewBox="0 0 18 18">
        <path d="M15.5,6H12V2.5a.5.5,0,0,0-.5-.5h-9a.5.5,0,0,0-.5.5v9a.5.5,0,0,0,.5.5H6v3.5a.5.5,0,0,0,.5.5h9a.5.5,0,0,0,.5-.5v-9A.5.5,0,0,0,15.5,6ZM11,11H3V3h8Z" />
    </symbol>

    <symbol id="IntersectOverlap" viewBox="0 0 18 18">
        <path d="M15.5,6H12V2.5a.5.5,0,0,0-.5-.5h-9a.5.5,0,0,0-.5.5v9a.5.5,0,0,0,.5.5H6v3.5a.5.5,0,0,0,.5.5h9a.5.5,0,0,0,.5-.5v-9A.5.5,0,0,0,15.5,6ZM6,6.5V11H3V3h8V6H6.5A.5.5,0,0,0,6,6.5ZM15,15H7V12h5V7h3Z" />
    </symbol>

    <symbol id="ExcludeOverlap" viewBox="0 0 18 18">
        <path d="M12,6V2.5a.5.5,0,0,0-.5-.5h-9a.5.5,0,0,0-.5.5v9a.5.5,0,0,0,.5.5H6V6Z" />
        <path d="M15.5,6H12v6H6v3.5a.5.5,0,0,0,.5.5h9a.5.5,0,0,0,.5-.5v-9A.5.5,0,0,0,15.5,6Z" />
    </symbol>

    <symbol id="DividePath" viewBox="0 0 18 18">
        <rect height="6" width="6" x="6" y="6" />
        <path d="M5,5h7V2.5a.5.5,0,0,0-.5-.5h-9a.5.5,0,0,0-.5.5v9a.5.5,0,0,0,.5.5H5Z" />
        <path d="M15.5,6H13v7H6v2.5a.5.5,0,0,0,.5.5h9a.5.5,0,0,0,.5-.5v-9A.5.5,0,0,0,15.5,6Z" />
    </symbol>

    <symbol id="OutlinePath" viewBox="0 0 18 18">
        <path d="M5.25,11H3V3h8V5.25h1V2.5a.5.5,0,0,0-.5-.5h-9a.5.5,0,0,0-.5.5v9a.5.5,0,0,0,.5.5H5.25Z" />
        <path d="M15.5,6H12.75V7H15v8H7V12.75H6V15.5a.5.5,0,0,0,.5.5h9a.5.5,0,0,0,.5-.5v-9A.5.5,0,0,0,15.5,6Z" />
        <path d="M11,7.75V11H7.75v1H11.5a.5.5,0,0,0,.5-.5V7.75Z" />
        <path d="M10.25,6H6.5a.5.5,0,0,0-.5.5v3.75H7V7h3.25Z" />
    </symbol>

    <symbol id="Group" viewBox="0 0 18 18">
        <path d="M11,7V5.5a.5.5,0,0,0-.5-.5h-5a.5.5,0,0,0-.5.5v5a.5.5,0,0,0,.5.5H7V7Z" />
        <path d="M12.5,8H8v4.5a.5.5,0,0,0,.5.5h4a.5.5,0,0,0,.5-.5v-4A.5.5,0,0,0,12.5,8Z" />
        <path d="M16.5,4a.5.5,0,0,0,.5-.5v-2a.5.5,0,0,0-.5-.5h-2a.5.5,0,0,0-.5.5V2H4V1.5A.5.5,0,0,0,3.5,1h-2a.5.5,0,0,0-.5.5v2a.5.5,0,0,0,.5.5H2V14H1.5a.5.5,0,0,0-.5.5v2a.5.5,0,0,0,.5.5h2a.5.5,0,0,0,.5-.5V16H14v.5a.5.5,0,0,0,.5.5h2a.5.5,0,0,0,.5-.5v-2a.5.5,0,0,0-.5-.5H16V4ZM15,14h-.5a.5.5,0,0,0-.5.5V15H4v-.5a.5.5,0,0,0-.5-.5H3V4h.5A.5.5,0,0,0,4,3.5V3H14v.5a.5.5,0,0,0,.5.5H15Z" />
    </symbol>

    <symbol id="Ungroup" viewBox="0 0 18 18">
        <rect height="3.5" rx="0.5" width="3.5" x="10.25" y="10.25" />
        <path d="M17.75,9A.25.25,0,0,0,18,8.75V6.25A.25.25,0,0,0,17.75,6h-2.5a.25.25,0,0,0-.25.25V7H9V6.25A.25.25,0,0,0,8.75,6H6.25A.25.25,0,0,0,6,6.25v2.5A.25.25,0,0,0,6.25,9H7v6H6.25a.25.25,0,0,0-.25.25v2.5a.25.25,0,0,0,.25.25h2.5A.25.25,0,0,0,9,17.75V17h6v.75a.25.25,0,0,0,.25.25h2.5a.25.25,0,0,0,.25-.25v-2.5a.25.25,0,0,0-.25-.25H17V9ZM16,15h-.75a.25.25,0,0,0-.25.25V16H9v-.75A.25.25,0,0,0,8.75,15H8V9h.75A.25.25,0,0,0,9,8.75V8h6v.75a.25.25,0,0,0,.25.25H16Z" />
        <path d="M5,5.5A.5.5,0,0,1,5.5,5H7.75V4.75a.5.5,0,0,0-.5-.5H4.75a.5.5,0,0,0-.5.5v2.5a.5.5,0,0,0,.5.5H5Z" />
        <path d="M5,10H3V9.25A.25.25,0,0,0,2.75,9H2V3h.75A.25.25,0,0,0,3,2.75V2H9v.75A.25.25,0,0,0,9.25,3H10V5h1V3h.75A.25.25,0,0,0,12,2.75V.25A.25.25,0,0,0,11.75,0H9.25A.25.25,0,0,0,9,.25V1H3V.25A.25.25,0,0,0,2.75,0H.25A.25.25,0,0,0,0,.25v2.5A.25.25,0,0,0,.25,3H1V9H.25A.25.25,0,0,0,0,9.25v2.5A.25.25,0,0,0,.25,12h2.5A.25.25,0,0,0,3,11.75V11H5Z" />
    </symbol>

    <symbol id="PinOff" viewBox="0 0 18 18">
        <polygon points="5.823 10.999 7.012 12.189 1.962 17.203 0 18 0.822 16.013 5.823 10.999" />
        <path d="M11.9775,13.1605,12,10.1445,16.1465,6l1.135-.0115a.7262.7262,0,0,0,.505-1.2395L15.5205,2.48,13.25.2415A.723.723,0,0,0,12.0155.747L12,1.854,7.8535,6,4.841,6.022a.72345.72345,0,0,0-.554,1.233l.001.001,3.2295,3.229,3.2285,3.2295a.721.721,0,0,0,1.2315-.554Z" />
    </symbol>
    <symbol id="PinOn" viewBox="0 0 18 18">
        <path d="M2.823,14l1.1895,1.1905-1.87,1.8345a.25.25,0,0,1-.35355-.002l-.003-.003-.795-.83a.25.25,0,0,1,.004-.35Z" />
        <path d="M8.9775,16.1605,9,13.1445,13.1465,9l1.135-.0115A.72618.72618,0,0,0,14.789,7.749L12.5205,5.48,10.25,3.212a.723.723,0,0,0-1.2345.5055L9,4.854,4.8535,9,1.841,9.022a.72345.72345,0,0,0-.554,1.233l.001.001,3.2295,3.229L7.746,16.7145a.721.721,0,0,0,1.2315-.554Z" />
    </symbol>

    <symbol id="Follow" viewBox="0 0 18 18">
        <path d="M7.044,14.45l-.379.05a1.45,1.45,0,0,1-1.62561-1.25L5.039,13.247l-.15-1.3625,3.258-.4225.15,1.3625a1.45,1.45,0,0,1-1.25052,1.62518ZM5.9725.669C5.135-.3075,4.2-.4,3.5365,1.654c-.98,4.35-.22,6.105,1.161,8.96l3.258-.4225c-.35-2.697.322-3.9075.181-4.993A8.78345,8.78345,0,0,0,5.9725.669Z" />
        <path d="M10.6865,17.916l.377.0635a1.45,1.45,0,0,0,1.67242-1.18659l.00058-.00341.2-1.3295L9.7,14.9135,9.5,16.243a1.45,1.45,0,0,0,1.18592,1.6729ZM12.284,4.185c.8745-.944,1.8165-1,2.3995,1.0775.813,4.3835-.0135,6.109-1.503,8.909L9.938,13.625c.45-2.6815-.172-3.917.01-4.996A8.78449,8.78449,0,0,1,12.284,4.185Z" />
    </symbol>

    <symbol id="FollowOff" viewBox="0 0 18 18">
        <path d="M3.95,14.45l-.379.05a1.45,1.45,0,0,1-1.62561-1.25L1.945,13.247l-.15-1.3625,3.258-.4225.15,1.3625a1.45,1.45,0,0,1-1.25052,1.62518ZM2.8795.669C2.0415-.3075,1.105-.4.443,1.654c-.98,4.35-.22,6.105,1.1615,8.96l3.258-.4225c-.35-2.697.3215-3.9075.181-4.993A8.78449,8.78449,0,0,0,2.8795.669Z" />
        <path d="M6.8445,13.625l.5095.0855c0-.07-.004-.14-.004-.2105a6.15251,6.15251,0,0,1,4.5335-5.935,18.71909,18.71909,0,0,0-.2965-2.3c-.582-2.08-1.5215-2.024-2.396-1.08A8.782,8.782,0,0,0,6.855,8.629C6.673,9.708,7.2975,10.9435,6.8445,13.625Z" />
        <path d="M7.5535,15.0735l-.95-.16-.2,1.3295a1.45,1.45,0,0,0,1.18659,1.67242l.00341.00058.377.0635a1.447,1.447,0,0,0,1.073-.2415A6.13907,6.13907,0,0,1,7.5535,15.0735Z" />
        <path d="M13.5,9.05a4.45,4.45,0,1,0,4.45,4.45A4.45,4.45,0,0,0,13.5,9.05ZM10,13.5a3.46708,3.46708,0,0,1,.7375-2.126l4.8885,4.8885A3.483,3.483,0,0,1,10,13.5Zm6.2625,2.126L11.374,10.7375a3.483,3.483,0,0,1,4.8885,4.8885Z" />
    </symbol>

    <symbol id="Moon" viewBox="0 0 18 18">
        <path d="M9,1a8,8,0,1,0,8,8A8,8,0,0,0,9,1Zm.5,14.982c-.165.0115-.332.018-.5.018A7,7,0,0,1,9,2c.168,0,.335.0065.5.018A11,11,0,0,0,9.5,15.982Z" />
    </symbol>

    <symbol id="Light" viewBox="0 0 18 18">
        <circle cx="9" cy="9" r="3.95" />
        <rect height="3" rx="0.25" width="1.8" x="8.1" />
        <rect height="3" rx="0.25" width="1.8" x="8.1" y="15" />
        <rect height="1.8" rx="0.25" width="3" y="8.1" />
        <rect height="1.8" rx="0.25" width="3" x="15" y="8.1" />
        <rect height="1.8" rx="0.25" transform="translate(1.76808 11.28817) rotate(-45)" width="3" x="13.01006" y="2.60983" />
        <rect height="1.8" rx="0.25" transform="translate(-9.23217 6.73192) rotate(-45)" width="3" x="2.01006" y="13.61017" />
        <rect height="3" rx="0.25" transform="translate(-1.44982 3.49982) rotate(-45)" width="1.8" x="2.59975" y="2" />
        <rect height="3" rx="0.25" transform="translate(-6.00197 14.48997) rotate(-45)" width="1.8" x="13.58995" y="12.99" />
    </symbol>

    <symbol id="ShowMenu" viewBox="0 0 18 18">
        <rect height="2" rx="0.5" width="14" x="2" y="8" />
        <rect height="2" rx="0.5" width="14" x="2" y="3" />
        <rect height="2" rx="0.5" width="14" x="2" y="13" />
    </symbol>

    <symbol id="Duplicate" viewBox="0 0 18 18">
        <path d="M4.5,4H13V1.5a.5.5,0,0,0-.5-.5H1.5a.5.5,0,0,0-.5.5v11a.5.5,0,0,0,.5.5H4V4.5A.5.5,0,0,1,4.5,4Z" />
        <path d="M16.5,5H5.5a.5.5,0,0,0-.5.5v11a.5.5,0,0,0,.5.5h11a.5.5,0,0,0,.5-.5V5.5A.5.5,0,0,0,16.5,5Zm-2,6.75H11.75V14.5h-1.5V11.75H7.5v-1.5h2.75V7.5h1.5v2.75H14.5Z" />
    </symbol>

    <symbol id="AssetsDownloaded" viewBox="0 0 18 18">
        <path class="a" d="M6,12H2V2H16V7.812a6.023,6.023,0,0,1,1,.729V1.5a.5.5,0,0,0-.5-.5H1.5a.5.5,0,0,0-.5.5v11a.5.5,0,0,0,.5.5H7a5.98723,5.98723,0,0,1,.0905-1Z" />
        <path class="a" d="M13,8.025A4.975,4.975,0,1,0,17.975,13,4.975,4.975,0,0,0,13,8.025Zm-.085,8.0905-2.695-2.682A.25.25,0,0,1,10.3895,13H12V10.25a.25.25,0,0,1,.25-.25h1.5a.25.25,0,0,1,.25.25V13h1.6105a.25.25,0,0,1,.1695.4335l-2.695,2.682A.125.125,0,0,1,12.915,16.1155Z" />
    </symbol>
<!--
    <symbol id="" viewBox="0 0 18 18">
    </symbol>
-->
</svg>